# Blender v2.93.11 OBJ File: 'arm1red.blend'
# www.blender.org
mtllib arm1red.mtl
o Arm1_Red_Cube.014
v 1.156420 1.521442 -0.361094
v 0.891385 1.556998 -0.355340
v 1.256951 1.465511 -0.357081
v 1.540035 0.878488 -0.345840
v 1.498982 1.059522 -0.349594
v 1.447209 1.225802 -0.350257
v 1.372243 1.375087 -0.353503
v 0.746868 1.487939 -0.350317
v 0.749041 1.120497 -0.349993
v 0.858180 0.778240 -0.347901
v 0.791339 0.953371 -0.343232
v 0.724950 1.261905 -0.350693
v 0.725175 1.390977 -0.349275
v 0.970909 0.805281 -0.075800
v 0.909354 0.985387 -0.080789
v 0.861602 1.149484 -0.090766
v 1.179684 1.057063 0.052489
v 1.134479 1.183512 0.044673
v 1.063366 1.310920 0.027722
v 0.828936 1.277781 -0.090766
v 0.788797 1.395184 -0.090766
v 0.821383 1.479946 -0.186159
v 0.990971 1.418094 -0.021618
v 0.946390 1.487347 -0.093645
v 1.443237 0.857509 -0.065641
v 1.367671 1.037615 -0.070630
v 1.301938 1.209716 -0.080607
v 1.242497 1.344239 -0.097236
v 1.148381 1.453860 -0.138310
v 1.076998 1.506842 -0.177971
v 1.462697 0.859390 -0.586064
v 1.417792 1.046352 -0.580316
v 1.356198 1.205594 -0.586589
v 1.288501 1.354348 -0.565741
v 1.208420 1.453073 -0.531634
v 1.111962 1.524244 -0.466781
v 1.232079 1.050119 -0.692025
v 1.180004 1.182790 -0.679507
v 1.118086 1.324114 -0.653116
v 1.071853 1.421227 -0.605547
v 1.018392 1.502442 -0.506667
v 1.044687 0.803601 -0.678988
v 1.003570 0.983707 -0.688193
v 0.950473 1.147137 -0.693218
v 0.935472 1.285885 -0.647565
v 0.912450 1.391948 -0.623398
v 0.881566 1.488922 -0.550726
v 1.052367 0.820294 -0.012399
v 1.034371 1.000400 -0.017388
v -1.156420 1.521442 -0.361094
v -0.891385 1.556998 -0.355340
v -1.256951 1.465511 -0.357081
v -1.540035 0.878488 -0.345840
v -1.498982 1.059522 -0.349594
v -1.447209 1.225802 -0.350257
v -1.372243 1.375087 -0.353503
v -0.746868 1.487939 -0.350317
v -0.749041 1.120497 -0.349993
v -0.858180 0.778240 -0.347901
v -0.791339 0.953371 -0.343232
v -0.724950 1.261905 -0.350693
v -0.725175 1.390977 -0.349275
v -0.970909 0.805281 -0.075800
v -0.909354 0.985387 -0.080789
v -0.861602 1.149484 -0.090766
v -1.179684 1.057063 0.052489
v -1.134479 1.183512 0.044673
v -1.063366 1.310920 0.027722
v -0.828936 1.277781 -0.090766
v -0.788797 1.395184 -0.090766
v -0.821383 1.479946 -0.186159
v -0.990971 1.418094 -0.021618
v -0.946390 1.487347 -0.093645
v -1.443237 0.857509 -0.065641
v -1.367671 1.037615 -0.070630
v -1.301938 1.209716 -0.080607
v -1.242497 1.344239 -0.097236
v -1.148381 1.453860 -0.138310
v -1.076998 1.506842 -0.177971
v -1.462697 0.859390 -0.586064
v -1.417792 1.046352 -0.580316
v -1.356198 1.205594 -0.586589
v -1.288501 1.354348 -0.565741
v -1.208420 1.453073 -0.531634
v -1.111962 1.524244 -0.466781
v -1.232079 1.050119 -0.692025
v -1.180004 1.182790 -0.679507
v -1.118086 1.324114 -0.653116
v -1.071853 1.421227 -0.605547
v -1.018392 1.502442 -0.506667
v -1.044687 0.803601 -0.678988
v -1.003570 0.983707 -0.688193
v -0.950473 1.147137 -0.693218
v -0.935472 1.285885 -0.647565
v -0.912450 1.391948 -0.623398
v -0.881566 1.488922 -0.550726
v -1.052367 0.820294 -0.012399
v -1.034371 1.000400 -0.017388
vt 0.000000 0.000000
vt 0.000000 0.000000
vt 0.000000 0.000000
vt 0.000000 0.000000
vt 0.000000 0.000000
vt 0.000000 0.000000
vt 0.000000 0.000000
vt 0.000000 0.000000
vt 0.000000 0.000000
vt 0.000000 0.000000
vt 0.000000 0.000000
vt 0.000000 0.000000
vt 0.000000 0.000000
vt 0.000000 0.000000
vt 0.000000 0.000000
vt 0.000000 0.000000
vt 0.000000 0.000000
vt 0.000000 0.000000
vt 0.000000 0.000000
vt 0.000000 0.000000
vt 0.000000 0.000000
vt 0.000000 0.000000
vt 0.000000 0.000000
vt 0.000000 0.000000
vt 0.000000 0.000000
vt 0.000000 0.000000
vt 0.000000 0.000000
vt 0.000000 0.000000
vt 0.000000 0.000000
vt 0.000000 0.000000
vt 0.000000 0.000000
vt 0.000000 0.000000
vt 0.000000 0.000000
vt 0.000000 0.000000
vt 0.000000 0.000000
vt 0.000000 0.000000
vt 0.000000 0.000000
vt 0.000000 0.000000
vt 0.000000 0.000000
vt 0.000000 0.000000
vt 0.000000 0.000000
vt 0.000000 0.000000
vt 0.000000 0.000000
vt 0.000000 0.000000
vt 0.000000 0.000000
vt 0.000000 0.000000
vt 0.000000 0.000000
vt 0.000000 0.000000
vt 0.000000 0.000000
vt 0.000000 0.000000
vt 0.000000 0.000000
vt 0.000000 0.000000
vt 0.000000 0.000000
vt 0.000000 0.000000
vt 0.000000 0.000000
vt 0.000000 0.000000
vt 0.000000 0.000000
vt 0.000000 0.000000
vt 0.000000 0.000000
vt 0.000000 0.000000
vt 0.000000 0.000000
vt 0.000000 0.000000
vt 0.000000 0.000000
vt 0.000000 0.000000
vt 0.000000 0.000000
vt 0.000000 0.000000
vt 0.000000 0.000000
vt 0.000000 0.000000
vt 0.000000 0.000000
vt 0.000000 0.000000
vt 0.000000 0.000000
vt 0.000000 0.000000
vt 0.000000 0.000000
vt 0.000000 0.000000
vt 0.000000 0.000000
vt 0.000000 0.000000
vt 0.000000 0.000000
vt 0.000000 0.000000
vt 0.000000 0.000000
vt 0.000000 0.000000
vt 0.000000 0.000000
vt 0.000000 0.000000
vt 0.000000 0.000000
vt 0.000000 0.000000
vt 0.000000 0.000000
vt 0.000000 0.000000
vt 0.000000 0.000000
vt 0.000000 0.000000
vt 0.000000 0.000000
vt 0.000000 0.000000
vt 0.000000 0.000000
vt 0.000000 0.000000
vt 0.000000 0.000000
vt 0.000000 0.000000
vt 0.000000 0.000000
vt 0.000000 0.000000
vt 0.000000 0.000000
vt 0.000000 0.000000
vn -0.7367 -0.0214 0.6759
vn -0.4779 -0.0676 0.8758
vn -0.5932 -0.0737 0.8016
vn -0.9517 -0.2990 -0.0696
vn -0.6830 -0.2593 0.6828
vn -0.6962 -0.1962 0.6905
vn 0.6554 0.4185 0.6287
vn 0.1421 -0.0988 0.9849
vn 0.5125 0.0177 0.8585
vn -0.9775 -0.1969 -0.0763
vn -0.7103 -0.1648 0.6843
vn 0.0677 0.1350 0.9885
vn 0.6972 0.3530 0.6240
vn 0.7314 0.2749 0.6240
vn 0.9589 0.2836 0.0009
vn 0.9535 0.3013 0.0032
vn 0.9229 0.3829 0.0407
vn 0.7943 0.6064 0.0369
vn 0.6867 0.3240 0.6507
vn 0.6002 0.5411 0.5890
vn 0.0165 0.2483 0.9685
vn -0.6969 -0.1586 0.6994
vn -0.9872 -0.1045 -0.1201
vn 0.5956 0.5215 0.6110
vn 0.5822 0.8128 0.0227
vn 0.4408 0.7460 0.4992
vn -0.0738 0.5601 0.8251
vn -0.7097 -0.1373 0.6910
vn -0.7450 0.2666 0.6115
vn -0.9827 0.1162 -0.1441
vn -0.7285 -0.1374 0.6711
vn -0.7525 0.2371 0.6144
vn -0.5014 0.7744 0.3858
vn -0.7619 0.6398 -0.1010
vn -0.1082 0.8759 0.4703
vn -0.5115 0.7688 0.3837
vn 0.2298 0.9183 0.3225
vn 0.3161 0.9483 0.0287
vn -0.1130 0.9916 -0.0629
vn -0.7254 0.6759 -0.1302
vn 0.9731 0.2129 0.0875
vn 0.8162 0.2371 -0.5268
vn 0.9579 0.2760 0.0790
vn -0.3250 -0.0884 -0.9416
vn 0.2134 0.1329 -0.9679
vn -0.0739 -0.3456 -0.9355
vn 0.6568 0.0256 -0.7536
vn 0.2431 0.1910 -0.9510
vn 0.9195 0.3884 0.0609
vn 0.6872 0.3253 -0.6495
vn -0.9448 -0.3233 -0.0528
vn -0.9560 -0.2906 -0.0412
vn -0.4881 -0.0008 -0.8728
vn -0.9778 -0.1981 -0.0676
vn 0.2322 0.2197 -0.9475
vn 0.2047 0.1973 -0.9587
vn 0.5873 0.5242 -0.6166
vn 0.1756 0.3768 -0.9095
vn 0.7916 0.6082 0.0584
vn -0.4834 0.1535 -0.8618
vn 0.1608 0.3536 -0.9215
vn -0.9886 -0.1035 -0.1093
vn 0.5743 0.8163 0.0612
vn 0.4154 0.7589 -0.5015
vn 0.3169 0.9465 0.0610
vn 0.1707 0.9321 -0.3194
vn 0.1131 0.6144 -0.7809
vn 0.0271 0.8632 -0.5042
vn 0.1152 0.5909 -0.7985
vn -0.4707 0.3381 -0.8150
vn 0.0345 0.8531 -0.5206
vn -0.3628 0.7553 -0.5458
vn -0.9832 0.1152 -0.1413
vn -0.7634 0.6408 -0.0817
vn -0.1063 0.9932 0.0466
vn -0.7257 0.6865 -0.0456
vn -0.4272 -0.4034 0.8092
vn -0.9343 -0.3487 -0.0749
vn 0.7577 0.2593 0.5989
vn 0.7367 -0.0214 0.6759
vn 0.5916 -0.0826 0.8020
vn 0.4779 -0.0676 0.8758
vn 0.9517 -0.2990 -0.0696
vn 0.6962 -0.1962 0.6905
vn 0.6830 -0.2593 0.6828
vn -0.6554 0.4185 0.6287
vn -0.5125 0.0177 0.8585
vn -0.1421 -0.0988 0.9849
vn 0.9775 -0.1969 -0.0763
vn 0.7103 -0.1648 0.6843
vn -0.0681 0.1324 0.9889
vn -0.6972 0.3530 0.6240
vn -0.7314 0.2749 0.6240
vn -0.9535 0.3013 0.0032
vn -0.9589 0.2836 0.0009
vn -0.9229 0.3829 0.0407
vn -0.7943 0.6064 0.0369
vn -0.6867 0.3240 0.6507
vn -0.0139 0.2468 0.9690
vn -0.6002 0.5411 0.5890
vn 0.6969 -0.1586 0.6994
vn 0.9872 -0.1045 -0.1201
vn -0.5956 0.5215 0.6110
vn -0.4408 0.7460 0.4992
vn -0.5822 0.8128 0.0227
vn 0.0663 0.5618 0.8246
vn 0.7097 -0.1373 0.6910
vn 0.7450 0.2666 0.6115
vn 0.9827 0.1162 -0.1441
vn 0.7525 0.2371 0.6144
vn 0.7285 -0.1374 0.6711
vn 0.7619 0.6398 -0.1010
vn 0.5014 0.7744 0.3858
vn 0.5115 0.7688 0.3837
vn 0.1005 0.8764 0.4709
vn -0.2306 0.9182 0.3219
vn -0.3161 0.9483 0.0287
vn 0.1130 0.9916 -0.0629
vn 0.7254 0.6759 -0.1302
vn -0.9731 0.2129 0.0875
vn -0.9579 0.2760 0.0790
vn -0.8128 0.2484 -0.5269
vn 0.3349 -0.0703 -0.9396
vn 0.0739 -0.3456 -0.9355
vn -0.2134 0.1329 -0.9679
vn -0.2431 0.1910 -0.9510
vn -0.6568 0.0256 -0.7536
vn -0.9195 0.3884 0.0609
vn -0.6872 0.3253 -0.6496
vn 0.9560 -0.2906 -0.0412
vn 0.9448 -0.3233 -0.0528
vn 0.4864 -0.0016 -0.8738
vn 0.9778 -0.1981 -0.0676
vn -0.2322 0.2197 -0.9475
vn -0.2047 0.1973 -0.9587
vn -0.5873 0.5242 -0.6166
vn -0.1756 0.3768 -0.9095
vn -0.7916 0.6082 0.0584
vn -0.1608 0.3536 -0.9215
vn 0.4834 0.1535 -0.8618
vn 0.9886 -0.1035 -0.1093
vn -0.5743 0.8163 0.0612
vn -0.4149 0.7584 -0.5027
vn -0.3170 0.9465 0.0610
vn -0.1707 0.9321 -0.3194
vn -0.0271 0.8632 -0.5042
vn -0.1131 0.6144 -0.7809
vn -0.1152 0.5909 -0.7985
vn 0.4707 0.3381 -0.8150
vn -0.0345 0.8531 -0.5206
vn 0.3628 0.7553 -0.5458
vn 0.9832 0.1152 -0.1413
vn 0.7634 0.6408 -0.0817
vn 0.1063 0.9932 0.0466
vn 0.7257 0.6865 -0.0456
vn 0.4272 -0.4034 0.8092
vn 0.9343 -0.3487 -0.0749
vn -0.7577 0.2593 0.5989
usemtl red
s 1
f 15/1/1 48/2/2 49/3/3
f 11/4/4 14/5/5 15/1/6
f 26/6/7 17/7/8 25/8/9
f 9/9/10 15/1/6 16/10/11
f 49/3/3 17/7/8 18/11/12
f 17/7/8 27/12/13 18/11/12
f 26/6/14 4/13/15 5/14/16
f 6/15/17 26/6/14 5/14/16
f 7/16/18 27/12/19 6/15/17
f 18/11/12 28/17/20 19/18/21
f 19/18/21 16/10/22 18/11/12
f 16/10/11 12/19/23 9/9/10
f 28/17/24 3/20/25 29/21/26
f 19/18/21 29/21/26 23/22/27
f 20/23/28 23/22/27 21/24/29
f 13/25/30 20/23/31 21/24/32
f 13/25/30 22/26/33 8/27/34
f 21/24/29 24/28/35 22/26/36
f 23/22/27 30/29/37 24/28/35
f 1/30/38 29/21/26 3/20/25
f 2/31/39 8/27/40 22/26/36
f 24/28/35 2/31/39 22/26/36
f 30/29/37 2/31/39 24/28/35
f 2/31/39 30/29/37 1/30/38
f 4/13/41 32/32/42 5/14/43
f 43/33/44 37/34/45 42/35/46
f 32/32/42 31/36/47 37/34/48
f 6/15/49 32/32/42 33/37/50
f 43/33/44 10/38/51 11/4/52
f 44/39/53 11/4/52 9/9/54
f 33/37/50 37/34/48 38/40/55
f 38/40/56 43/33/44 44/39/53
f 34/41/57 38/40/55 39/42/58
f 6/15/49 34/41/57 7/16/59
f 38/40/56 45/43/60 39/42/61
f 45/43/60 9/9/54 12/19/62
f 3/20/63 34/41/57 35/44/64
f 1/30/65 35/44/64 36/45/66
f 36/45/66 40/46/67 41/47/68
f 35/44/64 39/42/58 40/46/67
f 40/46/69 45/43/60 46/48/70
f 41/47/71 46/48/70 47/49/72
f 46/48/70 12/19/62 13/25/73
f 47/49/72 13/25/73 8/27/74
f 2/31/75 1/30/65 36/45/66
f 41/47/71 2/31/75 36/45/66
f 2/31/75 41/47/71 47/49/72
f 2/31/75 47/49/72 8/27/76
f 17/7/8 49/3/3 48/2/2
f 15/1/1 14/5/77 48/2/2
f 11/4/4 10/38/78 14/5/5
f 9/9/10 11/4/4 15/1/6
f 18/11/12 16/10/22 49/3/3
f 16/10/22 15/1/1 49/3/3
f 17/7/8 26/6/7 27/12/13
f 26/6/14 25/8/79 4/13/15
f 6/15/17 27/12/19 26/6/14
f 7/16/18 28/17/24 27/12/19
f 18/11/12 27/12/13 28/17/20
f 19/18/21 20/23/28 16/10/22
f 16/10/11 20/23/31 12/19/23
f 28/17/24 7/16/18 3/20/25
f 19/18/21 28/17/20 29/21/26
f 20/23/28 19/18/21 23/22/27
f 13/25/30 12/19/23 20/23/31
f 13/25/30 21/24/32 22/26/33
f 21/24/29 23/22/27 24/28/35
f 23/22/27 29/21/26 30/29/37
f 1/30/38 30/29/37 29/21/26
f 4/13/41 31/36/47 32/32/42
f 6/15/49 5/14/43 32/32/42
f 43/33/44 42/35/46 10/38/51
f 44/39/53 43/33/44 11/4/52
f 33/37/50 32/32/42 37/34/48
f 38/40/56 37/34/45 43/33/44
f 34/41/57 33/37/50 38/40/55
f 6/15/49 33/37/50 34/41/57
f 38/40/56 44/39/53 45/43/60
f 45/43/60 44/39/53 9/9/54
f 3/20/63 7/16/59 34/41/57
f 1/30/65 3/20/63 35/44/64
f 36/45/66 35/44/64 40/46/67
f 35/44/64 34/41/57 39/42/58
f 40/46/69 39/42/61 45/43/60
f 41/47/71 40/46/69 46/48/70
f 46/48/70 45/43/60 12/19/62
f 47/49/72 46/48/70 13/25/73
f 64/50/80 98/51/81 97/52/82
f 60/53/83 64/50/84 63/54/85
f 75/55/86 74/56/87 66/57/88
f 58/58/89 65/59/90 64/50/84
f 98/51/81 67/60/91 66/57/88
f 66/57/88 67/60/91 76/61/92
f 75/55/93 54/62/94 53/63/95
f 55/64/96 54/62/94 75/55/93
f 56/65/97 55/64/96 76/61/98
f 67/60/91 68/66/99 77/67/100
f 68/66/99 67/60/91 65/59/101
f 65/59/90 58/58/89 61/68/102
f 77/67/103 78/69/104 52/70/105
f 68/66/99 72/71/106 78/69/104
f 69/72/107 70/73/108 72/71/106
f 62/74/109 70/73/110 69/72/111
f 62/74/109 57/75/112 71/76/113
f 70/73/108 71/76/114 73/77/115
f 72/71/106 73/77/115 79/78/116
f 50/79/117 52/70/105 78/69/104
f 51/80/118 71/76/114 57/75/119
f 73/77/115 71/76/114 51/80/118
f 79/78/116 73/77/115 51/80/118
f 51/80/118 50/79/117 79/78/116
f 53/63/120 54/62/121 81/81/122
f 92/82/123 91/83/124 86/84/125
f 81/81/122 86/84/126 80/85/127
f 55/64/128 82/86/129 81/81/122
f 92/82/123 60/53/130 59/87/131
f 93/88/132 58/58/133 60/53/130
f 82/86/129 87/89/134 86/84/126
f 87/89/135 93/88/132 92/82/123
f 83/90/136 88/91/137 87/89/134
f 55/64/128 56/65/138 83/90/136
f 87/89/135 88/91/139 94/92/140
f 94/92/140 61/68/141 58/58/133
f 52/70/142 84/93/143 83/90/136
f 50/79/144 85/94/145 84/93/143
f 85/94/145 90/95/146 89/96/147
f 84/93/143 89/96/147 88/91/137
f 89/96/148 95/97/149 94/92/140
f 90/95/150 96/98/151 95/97/149
f 95/97/149 62/74/152 61/68/141
f 96/98/151 57/75/153 62/74/152
f 51/80/154 85/94/145 50/79/144
f 90/95/150 85/94/145 51/80/154
f 51/80/154 96/98/151 90/95/150
f 51/80/154 57/75/155 96/98/151
f 66/57/88 97/52/82 98/51/81
f 64/50/80 97/52/82 63/54/156
f 60/53/83 63/54/85 59/87/157
f 58/58/89 64/50/84 60/53/83
f 67/60/91 98/51/81 65/59/101
f 65/59/101 98/51/81 64/50/80
f 66/57/88 76/61/92 75/55/86
f 75/55/93 53/63/95 74/56/158
f 55/64/96 75/55/93 76/61/98
f 56/65/97 76/61/98 77/67/103
f 67/60/91 77/67/100 76/61/92
f 68/66/99 65/59/101 69/72/107
f 65/59/90 61/68/102 69/72/111
f 77/67/103 52/70/105 56/65/97
f 68/66/99 78/69/104 77/67/100
f 69/72/107 72/71/106 68/66/99
f 62/74/109 69/72/111 61/68/102
f 62/74/109 71/76/113 70/73/110
f 70/73/108 73/77/115 72/71/106
f 72/71/106 79/78/116 78/69/104
f 50/79/117 78/69/104 79/78/116
f 53/63/120 81/81/122 80/85/127
f 55/64/128 81/81/122 54/62/121
f 92/82/123 59/87/131 91/83/124
f 93/88/132 60/53/130 92/82/123
f 82/86/129 86/84/126 81/81/122
f 87/89/135 92/82/123 86/84/125
f 83/90/136 87/89/134 82/86/129
f 55/64/128 83/90/136 82/86/129
f 87/89/135 94/92/140 93/88/132
f 94/92/140 58/58/133 93/88/132
f 52/70/142 83/90/136 56/65/138
f 50/79/144 84/93/143 52/70/142
f 85/94/145 89/96/147 84/93/143
f 84/93/143 88/91/137 83/90/136
f 89/96/148 94/92/140 88/91/139
f 90/95/150 95/97/149 89/96/148
f 95/97/149 61/68/141 94/92/140
f 96/98/151 62/74/152 95/97/149
