# Blender v2.93.11 OBJ File: 'arm1goldleft.blend'
# www.blender.org
mtllib arm1goldleft.mtl
o Arm1_Gold_left_Cube.004
v -1.139092 1.469184 -0.359261
v -0.906550 1.504740 -0.354083
v -1.231832 1.413253 -0.355650
v -1.586655 0.466737 -0.353471
v -1.617742 0.310618 -0.352585
v -1.504924 0.826229 -0.345534
v -1.455103 1.007264 -0.348913
v -1.407343 1.173543 -0.349509
v -1.338187 1.322829 -0.352430
v -1.681881 -0.143290 -0.358789
v -1.594780 -0.162653 -0.203679
v -1.455458 -0.200864 -0.132044
v -1.671906 0.005259 -0.354206
v -0.773234 1.435681 -0.349563
v -1.248087 -0.230359 -0.353483
v -1.125570 0.038777 -0.356238
v -0.775239 1.068238 -0.349272
v -0.875918 0.725982 -0.347389
v -1.336728 -0.219211 -0.225098
v -1.062324 0.219317 -0.350170
v -0.942437 0.554292 -0.354606
v -1.348759 -0.215689 -0.517637
v -1.481546 -0.207652 -0.556946
v -1.622454 -0.169477 -0.474621
v -1.186540 -0.097349 -0.353973
v -1.645907 0.137158 -0.355116
v -1.002380 0.386805 -0.352388
v -1.555864 0.632993 -0.352119
v -0.814258 0.901113 -0.343187
v -0.753015 1.209646 -0.349901
v -0.753223 1.338718 -0.348625
v -1.294232 -0.076484 -0.159410
v -1.238482 0.060615 -0.139198
v -1.174814 0.232716 -0.130220
v -1.120955 0.408820 -0.116747
v -1.053692 0.576919 -0.102537
v -0.979910 0.753023 -0.102537
v -0.923126 0.933129 -0.107026
v -0.879075 1.097225 -0.116004
v -1.417132 -0.054537 -0.030332
v -1.382256 0.086638 -0.006389
v -1.341131 0.254737 0.002589
v -1.296790 0.430841 0.007078
v -1.263449 0.598940 0.011567
v -1.213184 0.783048 0.011567
v -1.153780 0.963154 0.007078
v -1.103516 1.131253 -0.001900
v -1.053251 1.258662 -0.009382
v -0.848942 1.225523 -0.116004
v -0.811913 1.342926 -0.116004
v -0.841973 1.427688 -0.201844
v -0.998417 1.365836 -0.053781
v -0.957292 1.435089 -0.118595
v -1.558224 -0.027240 -0.142776
v -1.521667 0.108840 -0.122575
v -1.480542 0.276939 -0.109856
v -1.448555 0.449041 -0.097884
v -1.416569 0.617139 -0.093395
v -1.370873 0.805250 -0.093395
v -1.320609 0.985356 -0.097884
v -1.270344 1.157458 -0.106863
v -1.215510 1.291981 -0.121826
v -1.128689 1.401601 -0.158787
v -1.062839 1.454583 -0.194476
v -1.613329 -0.030028 -0.527196
v -1.588160 0.106052 -0.546029
v -1.557719 0.278821 -0.556942
v -1.526995 0.433578 -0.564807
v -1.488414 0.604346 -0.562237
v -1.433580 0.807132 -0.561702
v -1.379507 0.987238 -0.556530
v -1.335335 1.153336 -0.562174
v -1.272885 1.302090 -0.543414
v -1.199012 1.400815 -0.512723
v -1.110030 1.471986 -0.454364
v -1.325877 0.577169 -0.663708
v -1.366241 0.401732 -0.659612
v -1.409651 0.240304 -0.647134
v -1.440420 0.069537 -0.625789
v -1.474793 -0.079217 -0.601564
v -1.267996 0.777954 -0.661154
v -1.220837 0.956726 -0.657052
v -1.172798 1.116820 -0.645788
v -1.115679 1.261572 -0.622040
v -1.073030 1.368969 -0.579235
v -1.023713 1.450184 -0.490256
v -1.315046 -0.093154 -0.585585
v -1.258080 0.052265 -0.612435
v -1.200212 0.227034 -0.617009
v -1.158473 0.385127 -0.623423
v -1.120041 0.560564 -0.635725
v -1.060618 0.751343 -0.645320
v -1.006878 0.931449 -0.653604
v -0.961058 1.094878 -0.658126
v -0.947220 1.233627 -0.617045
v -0.925982 1.339689 -0.595297
v -0.897492 1.436664 -0.529903
v -1.139092 1.469184 -0.359261
v -0.906550 1.504740 -0.354083
v -1.231832 1.413253 -0.355650
v -1.586655 0.466737 -0.353471
v -1.617742 0.310618 -0.352585
v -1.504924 0.826229 -0.345534
v -1.455103 1.007264 -0.348913
v -1.407343 1.173543 -0.349509
v -1.338187 1.322829 -0.352430
v -1.681881 -0.143290 -0.358789
v -1.594780 -0.162653 -0.203679
v -1.455458 -0.200864 -0.132044
v -1.671906 0.005259 -0.354206
v -0.773234 1.435681 -0.349563
v -1.125570 0.038777 -0.356238
v -0.775239 1.068238 -0.349272
v -0.875918 0.725982 -0.347389
v -1.062324 0.219317 -0.350170
v -0.942437 0.554292 -0.354606
v -1.481546 -0.207652 -0.556946
v -1.622454 -0.169477 -0.474621
v -1.186540 -0.097349 -0.353973
v -1.645907 0.137158 -0.355116
v -1.002380 0.386805 -0.352388
v -1.555864 0.632993 -0.352119
v -0.814258 0.901113 -0.343187
v -0.753015 1.209646 -0.349901
v -0.753223 1.338718 -0.348625
v -0.979910 0.753023 -0.102537
v -0.923126 0.933129 -0.107026
v -0.879075 1.097225 -0.116004
v -1.417132 -0.054537 -0.030332
v -1.382256 0.086638 -0.006389
v -1.341131 0.254737 0.002589
v -1.296790 0.430841 0.007078
v -1.263449 0.598940 0.011567
v -1.213184 0.783048 0.011567
v -1.153780 0.963154 0.007078
v -1.103516 1.131253 -0.001900
v -1.053251 1.258662 -0.009382
v -0.848942 1.225523 -0.116004
v -0.811913 1.342926 -0.116004
v -0.841973 1.427688 -0.201844
v -0.998417 1.365836 -0.053781
v -0.957292 1.435089 -0.118595
v -1.558224 -0.027240 -0.142776
v -1.521667 0.108840 -0.122575
v -1.480542 0.276939 -0.109856
v -1.448555 0.449041 -0.097884
v -1.416569 0.617139 -0.093395
v -1.370873 0.805250 -0.093395
v -1.320609 0.985356 -0.097884
v -1.270344 1.157458 -0.106863
v -1.215510 1.291981 -0.121826
v -1.128689 1.401601 -0.158787
v -1.062839 1.454583 -0.194476
v -1.613329 -0.030028 -0.527196
v -1.588160 0.106052 -0.546029
v -1.557719 0.278821 -0.556942
v -1.526995 0.433578 -0.564807
v -1.488414 0.604346 -0.562237
v -1.433580 0.807132 -0.561702
v -1.379507 0.987238 -0.556530
v -1.335335 1.153336 -0.562174
v -1.272885 1.302090 -0.543414
v -1.199012 1.400815 -0.512723
v -1.110030 1.471986 -0.454364
v -1.325877 0.577169 -0.663708
v -1.366241 0.401732 -0.659612
v -1.409651 0.240304 -0.647134
v -1.440420 0.069537 -0.625789
v -1.474793 -0.079217 -0.601564
v -1.267996 0.777954 -0.661154
v -1.220837 0.956726 -0.657052
v -1.172798 1.116820 -0.645788
v -1.115679 1.261572 -0.622040
v -1.073030 1.368969 -0.579235
v -1.023713 1.450184 -0.490256
v -1.006878 0.931449 -0.653604
v -0.961058 1.094878 -0.658126
v -0.925982 1.339689 -0.595297
v -0.897492 1.436664 -0.529903
vt 0.000000 0.000000
vt 0.000000 0.000000
vt 0.000000 0.000000
vt 0.000000 0.000000
vt 0.000000 0.000000
vt 0.000000 0.000000
vt 0.000000 0.000000
vt 0.000000 0.000000
vt 0.000000 0.000000
vt 0.000000 0.000000
vt 0.000000 0.000000
vt 0.000000 0.000000
vt 0.000000 0.000000
vt 0.000000 0.000000
vt 0.000000 0.000000
vt 0.000000 0.000000
vt 0.000000 0.000000
vt 0.000000 0.000000
vt 0.000000 0.000000
vt 0.000000 0.000000
vt 0.000000 0.000000
vt 0.000000 0.000000
vt 0.000000 0.000000
vt 0.000000 0.000000
vt 0.000000 0.000000
vt 0.000000 0.000000
vt 0.000000 0.000000
vt 0.000000 0.000000
vt 0.000000 0.000000
vt 0.000000 0.000000
vt 0.000000 0.000000
vt 0.000000 0.000000
vt 0.000000 0.000000
vt 0.000000 0.000000
vt 0.000000 0.000000
vt 0.000000 0.000000
vt 0.000000 0.000000
vt 0.000000 0.000000
vt 0.000000 0.000000
vt 0.000000 0.000000
vt 0.000000 0.000000
vt 0.000000 0.000000
vt 0.000000 0.000000
vt 0.000000 0.000000
vt 0.000000 0.000000
vt 0.000000 0.000000
vt 0.000000 0.000000
vt 0.000000 0.000000
vt 0.000000 0.000000
vt 0.000000 0.000000
vt 0.000000 0.000000
vt 0.000000 0.000000
vt 0.000000 0.000000
vt 0.000000 0.000000
vt 0.000000 0.000000
vt 0.000000 0.000000
vt 0.000000 0.000000
vt 0.000000 0.000000
vt 0.000000 0.000000
vt 0.000000 0.000000
vt 0.000000 0.000000
vt 0.000000 0.000000
vt 0.000000 0.000000
vt 0.000000 0.000000
vt 0.000000 0.000000
vt 0.000000 0.000000
vt 0.000000 0.000000
vt 0.000000 0.000000
vt 0.000000 0.000000
vt 0.000000 0.000000
vt 0.000000 0.000000
vt 0.000000 0.000000
vt 0.000000 0.000000
vt 0.000000 0.000000
vt 0.000000 0.000000
vt 0.000000 0.000000
vt 0.000000 0.000000
vt 0.000000 0.000000
vt 0.000000 0.000000
vt 0.000000 0.000000
vt 0.000000 0.000000
vt 0.000000 0.000000
vt 0.000000 0.000000
vt 0.000000 0.000000
vt 0.000000 0.000000
vt 0.000000 0.000000
vt 0.000000 0.000000
vt 0.000000 0.000000
vt 0.000000 0.000000
vt 0.000000 0.000000
vt 0.000000 0.000000
vt 0.000000 0.000000
vt 0.000000 0.000000
vt 0.000000 0.000000
vt 0.000000 0.000000
vt 0.000000 0.000000
vt 0.000000 0.000000
vt 0.000000 0.000000
vt 0.000000 0.000000
vt 0.000000 0.000000
vt 0.000000 0.000000
vt 0.000000 0.000000
vt 0.000000 0.000000
vt 0.000000 0.000000
vt 0.000000 0.000000
vt 0.000000 0.000000
vt 0.000000 0.000000
vt 0.000000 0.000000
vt 0.000000 0.000000
vt 0.000000 0.000000
vt 0.000000 0.000000
vt 0.000000 0.000000
vt 0.000000 0.000000
vt 0.000000 0.000000
vt 0.000000 0.000000
vt 0.000000 0.000000
vt 0.000000 0.000000
vt 0.000000 0.000000
vt 0.000000 0.000000
vt 0.000000 0.000000
vt 0.000000 0.000000
vt 0.000000 0.000000
vt 0.000000 0.000000
vt 0.000000 0.000000
vt 0.000000 0.000000
vt 0.000000 0.000000
vt 0.000000 0.000000
vt 0.000000 0.000000
vt 0.000000 0.000000
vt 0.000000 0.000000
vt 0.000000 0.000000
vt 0.000000 0.000000
vt 0.000000 0.000000
vt 0.000000 0.000000
vt 0.000000 0.000000
vt 0.000000 0.000000
vt 0.000000 0.000000
vt 0.000000 0.000000
vt 0.000000 0.000000
vt 0.000000 0.000000
vt 0.000000 0.000000
vt 0.000000 0.000000
vt 0.000000 0.000000
vt 0.000000 0.000000
vt 0.000000 0.000000
vt 0.000000 0.000000
vt 0.000000 0.000000
vt 0.000000 0.000000
vt 0.000000 0.000000
vt 0.000000 0.000000
vt 0.000000 0.000000
vt 0.000000 0.000000
vt 0.000000 0.000000
vt 0.000000 0.000000
vt 0.000000 0.000000
vt 0.000000 0.000000
vt 0.000000 0.000000
vt 0.000000 0.000000
vt 0.000000 0.000000
vt 0.000000 0.000000
vt 0.000000 0.000000
vt 0.000000 0.000000
vt 0.000000 0.000000
vt 0.000000 0.000000
vt 0.000000 0.000000
vt 0.000000 0.000000
vt 0.000000 0.000000
vt 0.000000 0.000000
vt 0.000000 0.000000
vt 0.000000 0.000000
vt 0.000000 0.000000
vt 0.000000 0.000000
vn -0.7539 -0.1200 0.6459
vn -0.7619 -0.0067 0.6477
vn -0.9923 0.1016 0.0714
vn 0.9179 -0.3963 0.0199
vn 0.7234 -0.3352 0.6036
vn 0.6804 -0.4177 0.6021
vn -0.0118 -0.4966 0.8679
vn 0.6644 -0.4413 0.6032
vn -0.0253 -0.4884 0.8723
vn -0.0026 -0.3516 0.9361
vn -0.7572 -0.0215 0.6528
vn 0.8987 -0.4343 0.0607
vn 0.8928 -0.4486 0.0403
vn -0.7557 -0.1408 0.6396
vn -0.0153 -0.3594 0.9330
vn -0.9976 0.0202 0.0657
vn -0.7558 0.1216 0.6434
vn -0.0012 -0.1339 0.9910
vn -0.7567 0.1185 0.6430
vn -0.9809 0.1704 0.0935
vn 0.7298 -0.2680 0.6290
vn 0.9440 -0.3299 -0.0005
vn -0.0105 -0.0698 0.9975
vn -0.7456 0.1238 0.6548
vn 0.0007 -0.0728 0.9973
vn -0.7471 0.1233 0.6532
vn -0.9792 0.1718 0.1076
vn 0.7095 -0.2692 0.6513
vn 0.9446 -0.3274 -0.0221
vn -0.0220 -0.0610 0.9979
vn -0.7379 0.1216 0.6639
vn -0.7363 0.1208 0.6658
vn -0.9774 0.1853 0.1021
vn 0.9368 -0.3460 -0.0519
vn -0.0452 -0.0310 0.9985
vn 0.6890 -0.2746 0.6708
vn -0.7263 0.1503 0.6707
vn -0.9716 0.2190 0.0898
vn -0.7264 0.1516 0.6704
vn -0.0548 0.0176 0.9983
vn 0.6837 -0.2390 0.6895
vn -0.9616 0.2626 0.0804
vn -0.7117 0.1988 0.6738
vn -0.7126 0.1978 0.6731
vn 0.9391 -0.3375 -0.0639
vn 0.6884 -0.2760 0.6708
vn -0.0442 0.0505 0.9977
vn 0.6921 -0.1786 0.6993
vn 0.6824 -0.2405 0.6903
vn 0.9587 -0.2787 -0.0571
vn 0.6923 -0.1797 0.6989
vn -0.6993 0.2253 0.6784
vn 0.9815 -0.1802 -0.0651
vn -0.0363 0.0817 0.9960
vn 0.7049 -0.1509 0.6930
vn -0.6815 0.2829 0.6749
vn -0.6970 0.2254 0.6807
vn -0.9583 0.2750 0.0781
vn -0.9343 0.3483 0.0764
vn -0.6779 0.2848 0.6778
vn -0.8123 0.5795 0.0659
vn -0.6012 0.4873 0.6334
vn -0.6087 0.4825 0.6298
vn -0.0218 0.2107 0.9773
vn 0.7155 -0.1219 0.6879
vn 0.7058 -0.1519 0.6919
vn 0.9895 -0.0934 -0.1100
vn 0.7245 -0.1255 0.6778
vn -0.6098 0.7907 0.0545
vn -0.4650 0.7145 0.5227
vn 0.0435 0.5464 0.8364
vn 0.7449 0.2528 0.6174
vn 0.9851 0.1075 -0.1342
vn 0.5204 0.7508 0.4068
vn 0.7799 0.6197 -0.0879
vn 0.0947 0.8571 0.5064
vn 0.5291 0.7422 0.4112
vn -0.3424 0.9379 0.0565
vn -0.2442 0.9054 0.3472
vn 0.1187 0.9921 -0.0405
vn 0.7473 0.6551 -0.1114
vn -0.7578 -0.0502 -0.6506
vn -0.9984 0.0229 0.0514
vn -0.7554 -0.1205 -0.6441
vn -0.1874 -0.2370 -0.9533
vn -0.1489 -0.2865 -0.9464
vn -0.7628 0.0534 -0.6444
vn -0.1937 -0.1344 -0.9718
vn -0.2955 -0.2815 -0.9129
vn 0.4656 -0.3937 -0.7926
vn 0.4708 -0.4436 -0.7626
vn 0.8957 -0.4442 0.0181
vn 0.8893 -0.4569 0.0212
vn -0.2565 -0.1055 -0.9608
vn -0.2586 -0.2310 -0.9380
vn 0.5039 -0.2829 -0.8161
vn 0.9248 -0.3802 0.0087
vn -0.7724 0.1075 -0.6260
vn -0.9800 0.1726 0.0991
vn -0.1933 -0.0362 -0.9805
vn -0.2041 -0.0359 -0.9783
vn 0.5462 -0.2109 -0.8107
vn 0.9437 -0.3308 -0.0045
vn -0.7689 0.1477 -0.6221
vn -0.9784 0.1847 0.0925
vn -0.1853 -0.0019 -0.9827
vn -0.7684 0.1458 -0.6231
vn -0.1933 -0.0007 -0.9811
vn 0.5461 -0.1943 -0.8149
vn 0.9438 -0.3296 -0.0263
vn -0.7577 0.1880 -0.6249
vn -0.9723 0.2188 0.0824
vn -0.1966 0.0361 -0.9798
vn -0.2010 0.0361 -0.9789
vn 0.5203 -0.1844 -0.8338
vn 0.9363 -0.3469 -0.0540
vn -0.7462 0.2179 -0.6291
vn -0.9619 0.2632 0.0735
vn -0.2223 0.0633 -0.9729
vn -0.2239 0.0638 -0.9725
vn 0.4922 -0.1763 -0.8525
vn 0.9393 -0.3370 -0.0650
vn -0.7384 0.2155 -0.6390
vn -0.9587 0.2749 0.0725
vn -0.2423 0.0869 -0.9663
vn -0.2446 0.0845 -0.9659
vn -0.7020 0.2822 -0.6539
vn -0.9338 0.3490 0.0782
vn 0.4708 -0.1439 -0.8704
vn 0.9584 -0.2787 -0.0610
vn 0.9799 -0.1830 -0.0792
vn 0.4784 0.0008 -0.8781
vn -0.2178 0.1787 -0.9595
vn -0.2159 0.1718 -0.9612
vn -0.1632 0.3233 -0.9321
vn -0.6047 0.4939 -0.6248
vn -0.8092 0.5811 0.0871
vn -0.1777 0.3210 -0.9303
vn 0.4745 0.1346 -0.8699
vn 0.9875 -0.0997 -0.1217
vn -0.4427 0.7316 -0.5184
vn -0.6071 0.7894 0.0915
vn -0.1974 0.9220 -0.3331
vn -0.3399 0.9364 0.0876
vn -0.1114 0.5629 -0.8190
vn 0.4631 0.3082 -0.8310
vn -0.1248 0.5599 -0.8191
vn 0.3598 0.7345 -0.5754
vn -0.0359 0.8295 -0.5573
vn 0.9821 0.1082 -0.1542
vn 0.7711 0.6298 -0.0940
vn 0.1156 0.9930 0.0221
vn 0.7472 0.6610 -0.0690
vn -0.0094 -0.3081 0.9513
vn -0.0137 -0.0617 0.9980
vn -0.0357 -0.0324 0.9988
vn -0.0599 0.0419 0.9973
vn 0.6873 -0.2235 0.6911
vn 0.6922 -0.1809 0.6987
vn 0.9637 -0.2618 -0.0531
vn -0.7527 0.0660 -0.6550
vn -0.1913 -0.1268 -0.9733
vn -0.7740 0.1084 -0.6238
vn -0.7580 0.1881 -0.6245
vn -0.7481 0.2318 -0.6218
vn -0.0086 0.0290 -0.9995
vn -0.6483 0.3953 -0.6507
vn -0.0116 0.0414 -0.9991
vn -0.6721 0.3533 -0.6507
vn -0.1271 0.5827 -0.8027
vn 0.9802 0.1245 -0.1540
vn -0.0046 -0.1365 0.9906
vn 0.7457 0.2305 0.6251
vn -0.0318 0.8360 -0.5478
vn -0.7661 0.0088 0.6426
vn -0.2195 0.0719 -0.9730
vn -0.1418 0.3652 -0.9201
vn 0.4350 0.3539 -0.8280
vn -0.0180 0.0260 -0.9995
vn -0.6302 0.3753 -0.6797
vn -0.5010 0.1105 -0.8584
vn -0.5018 0.0874 -0.8605
vn -0.7719 0.1540 -0.6168
vn -0.5024 0.0623 -0.8624
vn -0.7346 -0.1319 -0.6656
usemtl gold
s 1
f 11/1/1 54/2/2 13/3/3
f 16/4/4 33/5/5 32/6/6
f 12/7/7 19/8/8 32/6/6
f 12/7/9 40/9/10 54/2/11
f 19/8/8 15/10/12 25/11/13
f 12/7/9 54/2/11 11/1/14
f 19/8/8 25/11/13 32/6/6
f 12/7/7 32/6/6 40/9/15
f 11/1/1 13/3/3 10/12/16
f 16/4/4 32/6/6 25/11/13
f 33/5/5 40/9/15 32/6/6
f 55/13/17 40/9/10 41/14/18
f 13/3/3 55/13/19 26/15/20
f 34/16/21 16/4/4 20/17/22
f 42/18/23 33/5/5 34/16/21
f 56/19/24 41/14/18 42/18/25
f 26/15/20 56/19/26 5/20/27
f 35/21/28 20/17/22 27/22/29
f 43/23/30 34/16/21 35/21/28
f 57/24/31 42/18/25 43/23/30
f 5/20/27 57/24/32 4/25/33
f 21/26/34 35/21/28 27/22/29
f 44/27/35 35/21/28 36/28/36
f 58/29/37 43/23/30 44/27/35
f 28/30/38 57/24/32 58/29/39
f 45/31/40 36/28/36 37/32/41
f 6/33/42 58/29/39 59/34/43
f 59/34/44 44/27/35 45/31/40
f 18/35/45 36/28/46 21/26/34
f 46/36/47 37/32/41 38/37/48
f 37/32/49 29/38/50 38/37/51
f 60/39/52 45/31/40 46/36/47
f 17/40/53 38/37/51 29/38/50
f 47/41/54 38/37/48 39/42/55
f 61/43/56 46/36/47 47/41/54
f 6/33/42 60/39/57 7/44/58
f 8/45/59 60/39/57 61/43/60
f 9/46/61 61/43/60 62/47/62
f 62/47/63 47/41/54 48/48/64
f 48/48/64 39/42/55 49/49/65
f 39/42/66 30/50/67 49/49/68
f 3/51/69 62/47/62 63/52/70
f 52/53/71 62/47/63 48/48/64
f 52/53/71 49/49/65 50/54/72
f 31/55/73 49/49/68 30/50/67
f 51/56/74 31/55/73 14/57/75
f 53/58/76 50/54/72 51/56/77
f 53/58/76 63/52/70 52/53/71
f 1/59/78 63/52/70 64/60/79
f 2/61/80 51/56/77 14/57/81
f 53/58/76 51/56/77 2/61/80
f 64/60/79 53/58/76 2/61/80
f 2/61/80 1/59/78 64/60/79
f 65/62/82 10/12/83 13/3/3
f 24/63/84 80/64/85 23/65/86
f 66/66/87 13/3/3 26/15/20
f 65/62/82 79/67/88 80/64/85
f 23/65/89 87/68/90 22/69/91
f 22/69/91 25/11/92 15/10/93
f 79/67/94 87/68/90 80/64/95
f 25/11/92 88/70/96 16/4/97
f 67/71/98 26/15/20 5/20/99
f 78/72/100 66/66/87 67/71/98
f 78/72/101 88/70/96 79/67/94
f 16/4/97 89/73/102 20/17/103
f 68/74/104 5/20/99 4/25/105
f 77/75/106 67/71/98 68/74/107
f 77/75/108 89/73/102 78/72/101
f 20/17/103 90/76/109 27/22/110
f 69/77/111 4/25/105 28/30/112
f 76/78/113 68/74/107 69/77/111
f 76/78/114 90/76/109 77/75/108
f 27/22/110 91/79/115 21/26/116
f 70/80/117 28/30/112 6/33/118
f 81/81/119 69/77/111 70/80/117
f 81/81/120 91/79/115 76/78/114
f 21/26/116 92/82/121 18/35/122
f 71/83/123 6/33/118 7/44/124
f 82/84/125 70/80/117 71/83/123
f 82/84/126 92/82/121 81/81/120
f 72/85/127 7/44/124 8/45/128
f 18/35/122 93/86/129 29/38/130
f 17/40/131 93/86/129 94/87/132
f 83/88/133 71/83/123 72/85/127
f 83/88/134 93/86/129 82/84/126
f 84/89/135 72/85/127 73/90/136
f 73/90/136 8/45/128 9/46/137
f 84/89/138 94/87/132 83/88/134
f 17/40/131 95/91/139 30/50/140
f 74/92/141 9/46/137 3/51/142
f 75/93/143 3/51/142 1/59/144
f 75/93/143 85/94/145 74/92/141
f 85/94/145 73/90/136 74/92/141
f 96/95/146 84/89/138 85/94/147
f 97/96/148 85/94/147 86/97/149
f 30/50/140 96/95/146 31/55/150
f 31/55/150 97/96/148 14/57/151
f 2/61/152 75/93/143 1/59/144
f 86/97/149 75/93/143 2/61/152
f 2/61/152 97/96/148 86/97/149
f 2/61/152 14/57/153 97/96/148
f 108/98/1 110/99/3 107/100/16
f 144/101/17 129/102/154 130/103/18
f 110/99/3 144/101/19 120/104/20
f 145/105/24 130/103/18 131/106/25
f 120/104/20 145/105/26 102/107/27
f 146/108/31 131/106/25 132/109/155
f 102/107/27 146/108/32 101/110/33
f 147/111/37 132/109/155 133/112/156
f 122/113/38 146/108/32 147/111/39
f 103/114/42 147/111/39 148/115/43
f 148/115/44 133/112/156 134/116/157
f 135/117/47 126/118/158 127/119/48
f 149/120/52 134/116/157 135/117/47
f 113/121/53 127/119/159 123/122/160
f 136/123/54 127/119/48 128/124/55
f 150/125/56 135/117/47 136/123/54
f 103/114/42 149/120/57 104/126/58
f 105/127/59 149/120/57 150/125/60
f 106/128/61 150/125/60 151/129/62
f 151/129/63 136/123/54 137/130/64
f 137/130/64 128/124/55 138/131/65
f 128/124/66 124/132/67 138/131/68
f 100/133/69 151/129/62 152/134/70
f 141/135/71 151/129/63 137/130/64
f 141/135/71 138/131/65 139/136/72
f 125/137/73 138/131/68 124/132/67
f 140/138/74 125/137/73 111/139/75
f 142/140/76 139/136/72 140/138/77
f 142/140/76 152/134/70 141/135/71
f 98/141/78 152/134/70 153/142/79
f 99/143/80 140/138/77 111/139/81
f 142/140/76 140/138/77 99/143/80
f 153/142/79 142/140/76 99/143/80
f 99/143/80 98/141/78 153/142/79
f 154/144/82 107/100/83 110/99/3
f 118/145/84 169/146/85 117/147/86
f 155/148/161 110/99/3 120/104/20
f 154/144/82 168/149/162 169/146/85
f 156/150/163 120/104/20 102/107/99
f 157/151/104 102/107/99 101/110/105
f 158/152/164 101/110/105 122/113/112
f 159/153/165 122/113/112 103/114/118
f 160/154/123 103/114/118 104/126/124
f 171/155/166 159/153/165 160/154/123
f 161/156/167 104/126/124 105/127/128
f 172/157/168 160/154/123 161/156/167
f 162/158/169 105/127/128 106/128/137
f 163/159/141 106/128/137 100/133/142
f 164/160/143 100/133/142 98/141/144
f 164/160/143 174/161/145 163/159/141
f 174/161/145 162/158/169 163/159/141
f 179/162/148 174/161/170 175/163/149
f 125/137/171 179/162/148 111/139/151
f 99/143/152 164/160/143 98/141/144
f 175/163/149 164/160/143 99/143/152
f 99/143/152 179/162/148 175/163/149
f 99/143/152 111/139/153 179/162/148
f 33/5/5 41/14/172 40/9/15
f 55/13/17 54/2/11 40/9/10
f 13/3/3 54/2/2 55/13/19
f 34/16/21 33/5/5 16/4/4
f 42/18/23 41/14/172 33/5/5
f 56/19/24 55/13/17 41/14/18
f 26/15/20 55/13/19 56/19/26
f 35/21/28 34/16/21 20/17/22
f 43/23/30 42/18/23 34/16/21
f 57/24/31 56/19/24 42/18/25
f 5/20/27 56/19/26 57/24/32
f 21/26/34 36/28/46 35/21/28
f 44/27/35 43/23/30 35/21/28
f 58/29/37 57/24/31 43/23/30
f 28/30/38 4/25/33 57/24/32
f 45/31/40 44/27/35 36/28/36
f 6/33/42 28/30/38 58/29/39
f 59/34/44 58/29/37 44/27/35
f 18/35/45 37/32/49 36/28/46
f 46/36/47 45/31/40 37/32/41
f 37/32/49 18/35/45 29/38/50
f 60/39/52 59/34/44 45/31/40
f 17/40/53 39/42/66 38/37/51
f 47/41/54 46/36/47 38/37/48
f 61/43/56 60/39/52 46/36/47
f 6/33/42 59/34/43 60/39/57
f 8/45/59 7/44/58 60/39/57
f 9/46/61 8/45/59 61/43/60
f 62/47/63 61/43/56 47/41/54
f 48/48/64 47/41/54 39/42/55
f 39/42/66 17/40/53 30/50/67
f 3/51/69 9/46/61 62/47/62
f 52/53/71 63/52/70 62/47/63
f 52/53/71 48/48/64 49/49/65
f 31/55/73 50/54/173 49/49/68
f 51/56/74 50/54/173 31/55/73
f 53/58/76 52/53/71 50/54/72
f 53/58/76 64/60/79 63/52/70
f 1/59/78 3/51/69 63/52/70
f 65/62/82 24/63/84 10/12/83
f 24/63/84 65/62/82 80/64/85
f 66/66/87 65/62/82 13/3/3
f 65/62/82 66/66/87 79/67/88
f 23/65/89 80/64/95 87/68/90
f 22/69/91 87/68/90 25/11/92
f 79/67/94 88/70/96 87/68/90
f 25/11/92 87/68/90 88/70/96
f 67/71/98 66/66/87 26/15/20
f 78/72/100 79/67/88 66/66/87
f 78/72/101 89/73/102 88/70/96
f 16/4/97 88/70/96 89/73/102
f 68/74/104 67/71/98 5/20/99
f 77/75/106 78/72/100 67/71/98
f 77/75/108 90/76/109 89/73/102
f 20/17/103 89/73/102 90/76/109
f 69/77/111 68/74/104 4/25/105
f 76/78/113 77/75/106 68/74/107
f 76/78/114 91/79/115 90/76/109
f 27/22/110 90/76/109 91/79/115
f 70/80/117 69/77/111 28/30/112
f 81/81/119 76/78/113 69/77/111
f 81/81/120 92/82/121 91/79/115
f 21/26/116 91/79/115 92/82/121
f 71/83/123 70/80/117 6/33/118
f 82/84/125 81/81/119 70/80/117
f 82/84/126 93/86/129 92/82/121
f 72/85/127 71/83/123 7/44/124
f 18/35/122 92/82/121 93/86/129
f 17/40/131 29/38/130 93/86/129
f 83/88/133 82/84/125 71/83/123
f 83/88/134 94/87/132 93/86/129
f 84/89/135 83/88/133 72/85/127
f 73/90/136 72/85/127 8/45/128
f 84/89/138 95/91/139 94/87/132
f 17/40/131 94/87/132 95/91/139
f 74/92/141 73/90/136 9/46/137
f 75/93/143 74/92/141 3/51/142
f 75/93/143 86/97/174 85/94/145
f 85/94/145 84/89/135 73/90/136
f 96/95/146 95/91/139 84/89/138
f 97/96/148 96/95/146 85/94/147
f 30/50/140 95/91/139 96/95/146
f 31/55/150 96/95/146 97/96/148
f 108/98/1 143/164/2 110/99/3
f 144/101/17 143/164/175 129/102/154
f 110/99/3 143/164/2 144/101/19
f 145/105/24 144/101/17 130/103/18
f 120/104/20 144/101/19 145/105/26
f 146/108/31 145/105/24 131/106/25
f 102/107/27 145/105/26 146/108/32
f 147/111/37 146/108/31 132/109/155
f 122/113/38 101/110/33 146/108/32
f 103/114/42 122/113/38 147/111/39
f 148/115/44 147/111/37 133/112/156
f 135/117/47 134/116/157 126/118/158
f 149/120/52 148/115/44 134/116/157
f 113/121/53 128/124/66 127/119/159
f 136/123/54 135/117/47 127/119/48
f 150/125/56 149/120/52 135/117/47
f 103/114/42 148/115/43 149/120/57
f 105/127/59 104/126/58 149/120/57
f 106/128/61 105/127/59 150/125/60
f 151/129/63 150/125/56 136/123/54
f 137/130/64 136/123/54 128/124/55
f 128/124/66 113/121/53 124/132/67
f 100/133/69 106/128/61 151/129/62
f 141/135/71 152/134/70 151/129/63
f 141/135/71 137/130/64 138/131/65
f 125/137/73 139/136/173 138/131/68
f 140/138/74 139/136/173 125/137/73
f 142/140/76 141/135/71 139/136/72
f 142/140/76 153/142/79 152/134/70
f 98/141/78 100/133/69 152/134/70
f 154/144/82 118/145/84 107/100/83
f 118/145/84 154/144/82 169/146/85
f 155/148/161 154/144/82 110/99/3
f 154/144/82 155/148/161 168/149/162
f 156/150/163 155/148/161 120/104/20
f 157/151/104 156/150/163 102/107/99
f 158/152/164 157/151/104 101/110/105
f 159/153/165 158/152/164 122/113/112
f 160/154/123 159/153/165 103/114/118
f 171/155/166 170/165/176 159/153/165
f 161/156/167 160/154/123 104/126/124
f 172/157/168 171/155/166 160/154/123
f 162/158/169 161/156/167 105/127/128
f 163/159/141 162/158/169 106/128/137
f 164/160/143 163/159/141 100/133/142
f 164/160/143 175/163/174 174/161/145
f 174/161/145 173/166/177 162/158/169
f 179/162/148 178/167/178 174/161/170
f 125/137/171 178/167/178 179/162/148
f 162/158/169 173/166/177 172/157/168 161/156/167
f 172/157/179 177/168/179 176/169/179 171/155/179
f 158/152/180 165/170/181 166/171/182 157/151/183
f 166/171/182 167/172/184 156/150/185 157/151/183
l 13 25
l 5 20
l 16 26
l 4 27
l 21 28
l 6 18
l 8 17
l 9 30
l 3 31
l 1 14
l 109 108
l 110 119
l 102 115
l 112 120
l 101 121
l 116 122
l 103 114
l 105 113
l 106 124
l 100 125
l 98 111
