# Blender v2.93.11 OBJ File: 'arm1goldright.blend'
# www.blender.org
mtllib arm1goldright.mtl
o Arm1_Gold_right_Cube.006
v 1.139092 1.469184 -0.359261
v 0.906550 1.504740 -0.354083
v 1.231832 1.413253 -0.355650
v 1.586655 0.466737 -0.353471
v 1.617742 0.310618 -0.352585
v 1.504924 0.826229 -0.345534
v 1.455103 1.007264 -0.348913
v 1.407343 1.173543 -0.349509
v 1.338187 1.322829 -0.352430
v 1.681881 -0.143290 -0.358789
v 1.594780 -0.162653 -0.203679
v 1.455458 -0.200864 -0.132044
v 1.671906 0.005259 -0.354206
v 0.773234 1.435681 -0.349563
v 1.248087 -0.230359 -0.353483
v 1.125570 0.038777 -0.356238
v 0.775239 1.068238 -0.349272
v 0.875918 0.725982 -0.347389
v 1.336728 -0.219211 -0.225098
v 1.062324 0.219317 -0.350170
v 0.942437 0.554292 -0.354606
v 1.348759 -0.215689 -0.517637
v 1.481546 -0.207652 -0.556946
v 1.622454 -0.169477 -0.474621
v 1.186540 -0.097349 -0.353973
v 1.645907 0.137158 -0.355116
v 1.002380 0.386805 -0.352388
v 1.555864 0.632993 -0.352119
v 0.814258 0.901113 -0.343187
v 0.753015 1.209646 -0.349901
v 0.753223 1.338718 -0.348625
v 1.294232 -0.076484 -0.159410
v 1.238482 0.060615 -0.139198
v 1.174814 0.232716 -0.130220
v 1.120955 0.408820 -0.116747
v 1.053692 0.576919 -0.102537
v 0.979910 0.753023 -0.102537
v 0.923126 0.933129 -0.107026
v 0.879075 1.097225 -0.116004
v 1.417132 -0.054537 -0.030332
v 1.382256 0.086638 -0.006389
v 1.341131 0.254737 0.002589
v 1.296790 0.430841 0.007078
v 1.263449 0.598940 0.011567
v 1.213184 0.783048 0.011567
v 1.153780 0.963154 0.007078
v 1.103516 1.131253 -0.001900
v 1.053251 1.258662 -0.009382
v 0.848942 1.225523 -0.116004
v 0.811913 1.342926 -0.116004
v 0.841973 1.427688 -0.201844
v 0.998417 1.365836 -0.053781
v 0.957292 1.435089 -0.118595
v 1.558224 -0.027240 -0.142776
v 1.521667 0.108840 -0.122575
v 1.480542 0.276939 -0.109856
v 1.448555 0.449041 -0.097884
v 1.416569 0.617139 -0.093395
v 1.370873 0.805250 -0.093395
v 1.320609 0.985356 -0.097884
v 1.270344 1.157458 -0.106863
v 1.215510 1.291981 -0.121826
v 1.128689 1.401601 -0.158787
v 1.062839 1.454583 -0.194476
v 1.613329 -0.030028 -0.527196
v 1.588160 0.106052 -0.546029
v 1.557719 0.278821 -0.556942
v 1.526995 0.433578 -0.564807
v 1.488414 0.604346 -0.562237
v 1.433580 0.807132 -0.561702
v 1.379507 0.987238 -0.556530
v 1.335335 1.153336 -0.562174
v 1.272885 1.302090 -0.543414
v 1.199012 1.400815 -0.512723
v 1.110030 1.471986 -0.454364
v 1.325877 0.577169 -0.663708
v 1.366241 0.401732 -0.659612
v 1.409651 0.240304 -0.647134
v 1.440420 0.069537 -0.625789
v 1.474793 -0.079217 -0.601564
v 1.267996 0.777954 -0.661154
v 1.220837 0.956726 -0.657052
v 1.172798 1.116820 -0.645788
v 1.115679 1.261572 -0.622040
v 1.073030 1.368969 -0.579235
v 1.023713 1.450184 -0.490256
v 1.315046 -0.093154 -0.585585
v 1.258080 0.052265 -0.612435
v 1.200212 0.227034 -0.617009
v 1.158473 0.385127 -0.623423
v 1.120041 0.560564 -0.635725
v 1.060618 0.751343 -0.645320
v 1.006878 0.931449 -0.653604
v 0.961058 1.094878 -0.658126
v 0.947220 1.233627 -0.617045
v 0.925982 1.339689 -0.595297
v 0.897492 1.436664 -0.529903
vt 0.000000 0.000000
vt 0.000000 0.000000
vt 0.000000 0.000000
vt 0.000000 0.000000
vt 0.000000 0.000000
vt 0.000000 0.000000
vt 0.000000 0.000000
vt 0.000000 0.000000
vt 0.000000 0.000000
vt 0.000000 0.000000
vt 0.000000 0.000000
vt 0.000000 0.000000
vt 0.000000 0.000000
vt 0.000000 0.000000
vt 0.000000 0.000000
vt 0.000000 0.000000
vt 0.000000 0.000000
vt 0.000000 0.000000
vt 0.000000 0.000000
vt 0.000000 0.000000
vt 0.000000 0.000000
vt 0.000000 0.000000
vt 0.000000 0.000000
vt 0.000000 0.000000
vt 0.000000 0.000000
vt 0.000000 0.000000
vt 0.000000 0.000000
vt 0.000000 0.000000
vt 0.000000 0.000000
vt 0.000000 0.000000
vt 0.000000 0.000000
vt 0.000000 0.000000
vt 0.000000 0.000000
vt 0.000000 0.000000
vt 0.000000 0.000000
vt 0.000000 0.000000
vt 0.000000 0.000000
vt 0.000000 0.000000
vt 0.000000 0.000000
vt 0.000000 0.000000
vt 0.000000 0.000000
vt 0.000000 0.000000
vt 0.000000 0.000000
vt 0.000000 0.000000
vt 0.000000 0.000000
vt 0.000000 0.000000
vt 0.000000 0.000000
vt 0.000000 0.000000
vt 0.000000 0.000000
vt 0.000000 0.000000
vt 0.000000 0.000000
vt 0.000000 0.000000
vt 0.000000 0.000000
vt 0.000000 0.000000
vt 0.000000 0.000000
vt 0.000000 0.000000
vt 0.000000 0.000000
vt 0.000000 0.000000
vt 0.000000 0.000000
vt 0.000000 0.000000
vt 0.000000 0.000000
vt 0.000000 0.000000
vt 0.000000 0.000000
vt 0.000000 0.000000
vt 0.000000 0.000000
vt 0.000000 0.000000
vt 0.000000 0.000000
vt 0.000000 0.000000
vt 0.000000 0.000000
vt 0.000000 0.000000
vt 0.000000 0.000000
vt 0.000000 0.000000
vt 0.000000 0.000000
vt 0.000000 0.000000
vt 0.000000 0.000000
vt 0.000000 0.000000
vt 0.000000 0.000000
vt 0.000000 0.000000
vt 0.000000 0.000000
vt 0.000000 0.000000
vt 0.000000 0.000000
vt 0.000000 0.000000
vt 0.000000 0.000000
vt 0.000000 0.000000
vt 0.000000 0.000000
vt 0.000000 0.000000
vt 0.000000 0.000000
vt 0.000000 0.000000
vt 0.000000 0.000000
vt 0.000000 0.000000
vt 0.000000 0.000000
vt 0.000000 0.000000
vt 0.000000 0.000000
vt 0.000000 0.000000
vt 0.000000 0.000000
vt 0.000000 0.000000
vt 0.000000 0.000000
vn 0.7572 -0.0215 0.6528
vn 0.0253 -0.4884 0.8723
vn 0.7557 -0.1408 0.6396
vn -0.6644 -0.4413 0.6032
vn -0.8928 -0.4486 0.0403
vn -0.8987 -0.4343 0.0607
vn 0.0118 -0.4966 0.8679
vn -0.6786 -0.4191 0.6032
vn 0.7539 -0.1200 0.6459
vn 0.9923 0.1016 0.0714
vn 0.7619 -0.0067 0.6477
vn -0.9179 -0.3963 0.0199
vn -0.7238 -0.3352 0.6032
vn 0.0153 -0.3594 0.9330
vn 0.0046 -0.1365 0.9906
vn 0.0026 -0.3516 0.9361
vn 0.7558 0.1216 0.6434
vn 0.0012 -0.1339 0.9910
vn 0.7567 0.1185 0.6430
vn 0.9809 0.1704 0.0935
vn -0.7300 -0.2684 0.6286
vn -0.9440 -0.3299 -0.0005
vn 0.0105 -0.0698 0.9975
vn 0.7456 0.1238 0.6548
vn -0.0007 -0.0728 0.9973
vn 0.7471 0.1233 0.6532
vn 0.9792 0.1720 0.1076
vn -0.7095 -0.2692 0.6513
vn -0.9446 -0.3275 -0.0222
vn 0.0220 -0.0610 0.9979
vn 0.7379 0.1216 0.6639
vn 0.7363 0.1208 0.6658
vn 0.9774 0.1853 0.1021
vn -0.9368 -0.3460 -0.0519
vn -0.6884 -0.2760 0.6708
vn 0.0459 -0.0311 0.9985
vn -0.6890 -0.2746 0.6708
vn 0.7263 0.1503 0.6707
vn 0.9716 0.2190 0.0898
vn 0.0550 0.0172 0.9983
vn -0.6837 -0.2390 0.6895
vn 0.9616 0.2626 0.0804
vn 0.7264 0.1517 0.6704
vn 0.7126 0.1978 0.6731
vn -0.9392 -0.3375 -0.0639
vn -0.6824 -0.2405 0.6903
vn 0.0441 0.0509 0.9977
vn -0.6921 -0.1786 0.6993
vn -0.9587 -0.2787 -0.0571
vn -0.6923 -0.1797 0.6989
vn 0.6993 0.2253 0.6784
vn -0.9815 -0.1802 -0.0651
vn -0.7058 -0.1519 0.6919
vn 0.0365 0.0807 0.9961
vn -0.7049 -0.1509 0.6930
vn 0.6815 0.2829 0.6749
vn 0.6970 0.2254 0.6807
vn 0.9583 0.2750 0.0781
vn 0.9343 0.3482 0.0764
vn 0.8123 0.5795 0.0659
vn 0.6779 0.2848 0.6778
vn 0.6087 0.4825 0.6298
vn 0.0228 0.2114 0.9771
vn -0.9895 -0.0934 -0.1100
vn 0.6012 0.4873 0.6334
vn 0.6098 0.7907 0.0545
vn 0.4650 0.7145 0.5227
vn -0.0434 0.5464 0.8364
vn -0.7155 -0.1219 0.6879
vn -0.7449 0.2528 0.6174
vn -0.9851 0.1075 -0.1342
vn -0.7245 -0.1255 0.6778
vn -0.7457 0.2305 0.6251
vn -0.5204 0.7508 0.4068
vn -0.7799 0.6197 -0.0879
vn -0.1027 0.8565 0.5057
vn -0.5291 0.7422 0.4112
vn 0.2450 0.9055 0.3465
vn 0.3424 0.9379 0.0565
vn -0.1187 0.9921 -0.0405
vn -0.7473 0.6551 -0.1114
vn 0.9984 0.0229 0.0514
vn 0.7576 -0.0502 -0.6508
vn 0.1874 -0.2370 -0.9533
vn 0.7554 -0.1205 -0.6441
vn 0.1489 -0.2865 -0.9464
vn 0.7628 0.0534 -0.6444
vn 0.1937 -0.1344 -0.9718
vn -0.4656 -0.3938 -0.7925
vn 0.2955 -0.2815 -0.9129
vn -0.4708 -0.4436 -0.7626
vn -0.8957 -0.4442 0.0181
vn 0.2565 -0.1055 -0.9608
vn -0.5045 -0.2831 -0.8157
vn -0.9248 -0.3802 0.0087
vn 0.7724 0.1076 -0.6259
vn 0.9800 0.1726 0.0991
vn 0.1933 -0.0362 -0.9805
vn 0.2041 -0.0359 -0.9783
vn -0.5465 -0.2120 -0.8102
vn -0.9437 -0.3308 -0.0045
vn 0.7689 0.1477 -0.6221
vn 0.9784 0.1847 0.0925
vn 0.1853 -0.0019 -0.9827
vn 0.7684 0.1458 -0.6231
vn 0.1933 -0.0007 -0.9811
vn -0.5466 -0.1953 -0.8143
vn -0.9436 -0.3300 -0.0264
vn 0.7577 0.1880 -0.6249
vn 0.9723 0.2188 0.0824
vn 0.1966 0.0361 -0.9798
vn 0.2010 0.0361 -0.9789
vn -0.5205 -0.1839 -0.8338
vn -0.9363 -0.3469 -0.0540
vn 0.7460 0.2180 -0.6292
vn 0.9619 0.2632 0.0735
vn 0.2223 0.0633 -0.9729
vn 0.2239 0.0638 -0.9725
vn -0.4920 -0.1759 -0.8527
vn -0.9393 -0.3370 -0.0650
vn 0.7381 0.2158 -0.6392
vn 0.9587 0.2749 0.0725
vn 0.2423 0.0869 -0.9663
vn 0.2446 0.0845 -0.9659
vn -0.4706 -0.1436 -0.8706
vn 0.7021 0.2823 -0.6537
vn 0.9338 0.3490 0.0782
vn -0.9584 -0.2787 -0.0610
vn -0.9799 -0.1830 -0.0792
vn 0.2178 0.1787 -0.9595
vn 0.2159 0.1718 -0.9612
vn -0.4785 0.0007 -0.8781
vn 0.1632 0.3233 -0.9321
vn 0.6047 0.4939 -0.6248
vn 0.8092 0.5811 0.0871
vn 0.1777 0.3210 -0.9303
vn -0.4745 0.1346 -0.8699
vn -0.9875 -0.0997 -0.1217
vn 0.4441 0.7319 -0.5168
vn 0.6071 0.7894 0.0915
vn 0.1974 0.9220 -0.3331
vn 0.3399 0.9364 0.0876
vn 0.1114 0.5629 -0.8190
vn 0.0318 0.8360 -0.5478
vn -0.4631 0.3082 -0.8310
vn 0.1248 0.5599 -0.8191
vn -0.3598 0.7345 -0.5754
vn 0.0359 0.8295 -0.5573
vn -0.9821 0.1082 -0.1542
vn -0.7711 0.6298 -0.0940
vn -0.1156 0.9930 0.0221
vn -0.7472 0.6610 -0.0690
vn 0.9976 0.0202 0.0657
vn 0.7117 0.1988 0.6738
vn 0.2586 -0.2310 -0.9380
vn -0.8893 -0.4569 0.0212
usemtl gold.001
s 1
f 54/1/1 12/2/2 11/3/3
f 19/4/4 25/5/5 15/6/6
f 12/2/7 32/7/8 19/4/4
f 11/3/9 13/8/10 54/1/11
f 16/9/12 32/7/8 33/10/13
f 33/10/13 40/11/14 41/12/15
f 40/11/16 55/13/17 41/12/18
f 55/13/19 13/8/10 26/14/20
f 16/9/12 34/15/21 20/16/22
f 33/10/13 42/17/23 34/15/21
f 41/12/18 56/18/24 42/17/25
f 56/18/26 26/14/20 5/19/27
f 20/16/22 35/20/28 27/21/29
f 34/15/21 43/22/30 35/20/28
f 42/17/25 57/23/31 43/22/30
f 57/23/32 5/19/27 4/24/33
f 21/25/34 35/20/28 36/26/35
f 35/20/28 44/27/36 36/26/37
f 43/22/30 58/28/38 44/27/36
f 28/29/39 57/23/32 4/24/33
f 36/26/37 45/30/40 37/31/41
f 6/32/42 58/28/43 28/29/39
f 44/27/36 59/33/44 45/30/40
f 18/34/45 36/26/35 37/31/46
f 37/31/41 46/35/47 38/36/48
f 29/37/49 37/31/46 38/36/50
f 45/30/40 60/38/51 46/35/47
f 17/39/52 38/36/50 39/40/53
f 38/36/48 47/41/54 39/40/55
f 46/35/47 61/42/56 47/41/54
f 60/38/57 6/32/42 7/43/58
f 8/44/59 60/38/57 7/43/58
f 9/45/60 61/42/61 8/44/59
f 47/41/54 62/46/62 48/47/63
f 48/47/63 39/40/55 47/41/54
f 39/40/53 30/48/64 17/39/52
f 62/46/65 3/49/66 63/50/67
f 52/51/68 62/46/62 63/50/67
f 49/52/69 52/51/68 50/53/70
f 31/54/71 49/52/72 50/53/73
f 31/54/71 51/55/74 14/56/75
f 50/53/70 53/57/76 51/55/77
f 53/57/76 63/50/67 64/58/78
f 1/59/79 63/50/67 3/49/66
f 2/60/80 14/56/81 51/55/77
f 53/57/76 2/60/80 51/55/77
f 64/58/78 2/60/80 53/57/76
f 2/60/80 64/58/78 1/59/79
f 10/61/82 65/62/83 13/8/10
f 80/63/84 24/64/85 23/65/86
f 66/66/87 13/8/10 65/62/83
f 65/62/83 79/67/88 66/66/87
f 87/68/89 23/65/90 22/69/91
f 22/69/91 25/5/92 87/68/89
f 79/67/93 87/68/89 88/70/94
f 88/70/94 25/5/92 16/9/95
f 26/14/20 67/71/96 5/19/97
f 66/66/87 78/72/98 67/71/96
f 78/72/99 88/70/94 89/73/100
f 89/73/100 16/9/95 20/16/101
f 5/19/97 68/74/102 4/24/103
f 67/71/96 77/75/104 68/74/105
f 77/75/106 89/73/100 90/76/107
f 90/76/107 20/16/101 27/21/108
f 4/24/103 69/77/109 28/29/110
f 68/74/105 76/78/111 69/77/109
f 76/78/112 90/76/107 91/79/113
f 91/79/113 27/21/108 21/25/114
f 28/29/110 70/80/115 6/32/116
f 69/77/109 81/81/117 70/80/115
f 81/81/118 91/79/113 92/82/119
f 92/82/119 21/25/114 18/34/120
f 6/32/116 71/83/121 7/43/122
f 70/80/115 82/84/123 71/83/121
f 82/84/124 92/82/119 93/85/125
f 7/43/122 72/86/126 8/44/127
f 93/85/125 18/34/120 29/37/128
f 17/39/129 93/85/125 29/37/128
f 71/83/121 83/87/130 72/86/126
f 83/87/131 93/85/125 94/88/132
f 72/86/126 84/89/133 73/90/134
f 8/44/127 73/90/134 9/45/135
f 84/89/136 94/88/132 95/91/137
f 95/91/137 17/39/129 30/48/138
f 9/45/135 74/92/139 3/49/140
f 3/49/140 75/93/141 1/59/142
f 75/93/141 85/94/143 86/95/144
f 73/90/134 85/94/143 74/92/139
f 84/89/136 96/96/145 85/94/146
f 85/94/146 97/97/147 86/95/148
f 96/96/145 30/48/138 31/54/149
f 97/97/147 31/54/149 14/56/150
f 2/60/151 1/59/142 75/93/141
f 86/95/148 2/60/151 75/93/141
f 2/60/151 86/95/148 97/97/147
f 2/60/151 97/97/147 14/56/152
f 54/1/1 40/11/16 12/2/2
f 19/4/4 32/7/8 25/5/5
f 12/2/7 40/11/14 32/7/8
f 11/3/9 10/61/153 13/8/10
f 16/9/12 25/5/5 32/7/8
f 33/10/13 32/7/8 40/11/14
f 40/11/16 54/1/1 55/13/17
f 55/13/19 54/1/11 13/8/10
f 16/9/12 33/10/13 34/15/21
f 33/10/13 41/12/15 42/17/23
f 41/12/18 55/13/17 56/18/24
f 56/18/26 55/13/19 26/14/20
f 20/16/22 34/15/21 35/20/28
f 34/15/21 42/17/23 43/22/30
f 42/17/25 56/18/24 57/23/31
f 57/23/32 56/18/26 5/19/27
f 21/25/34 27/21/29 35/20/28
f 35/20/28 43/22/30 44/27/36
f 43/22/30 57/23/31 58/28/38
f 28/29/39 58/28/43 57/23/32
f 36/26/37 44/27/36 45/30/40
f 6/32/42 59/33/154 58/28/43
f 44/27/36 58/28/38 59/33/44
f 18/34/45 21/25/34 36/26/35
f 37/31/41 45/30/40 46/35/47
f 29/37/49 18/34/45 37/31/46
f 45/30/40 59/33/44 60/38/51
f 17/39/52 29/37/49 38/36/50
f 38/36/48 46/35/47 47/41/54
f 46/35/47 60/38/51 61/42/56
f 60/38/57 59/33/154 6/32/42
f 8/44/59 61/42/61 60/38/57
f 9/45/60 62/46/65 61/42/61
f 47/41/54 61/42/56 62/46/62
f 48/47/63 49/52/69 39/40/55
f 39/40/53 49/52/72 30/48/64
f 62/46/65 9/45/60 3/49/66
f 52/51/68 48/47/63 62/46/62
f 49/52/69 48/47/63 52/51/68
f 31/54/71 30/48/64 49/52/72
f 31/54/71 50/53/73 51/55/74
f 50/53/70 52/51/68 53/57/76
f 53/57/76 52/51/68 63/50/67
f 1/59/79 64/58/78 63/50/67
f 10/61/82 24/64/85 65/62/83
f 80/63/84 65/62/83 24/64/85
f 66/66/87 26/14/20 13/8/10
f 65/62/83 80/63/84 79/67/88
f 87/68/89 80/63/155 23/65/90
f 22/69/91 15/6/156 25/5/92
f 79/67/93 80/63/155 87/68/89
f 88/70/94 87/68/89 25/5/92
f 26/14/20 66/66/87 67/71/96
f 66/66/87 79/67/88 78/72/98
f 78/72/99 79/67/93 88/70/94
f 89/73/100 88/70/94 16/9/95
f 5/19/97 67/71/96 68/74/102
f 67/71/96 78/72/98 77/75/104
f 77/75/106 78/72/99 89/73/100
f 90/76/107 89/73/100 20/16/101
f 4/24/103 68/74/102 69/77/109
f 68/74/105 77/75/104 76/78/111
f 76/78/112 77/75/106 90/76/107
f 91/79/113 90/76/107 27/21/108
f 28/29/110 69/77/109 70/80/115
f 69/77/109 76/78/111 81/81/117
f 81/81/118 76/78/112 91/79/113
f 92/82/119 91/79/113 21/25/114
f 6/32/116 70/80/115 71/83/121
f 70/80/115 81/81/117 82/84/123
f 82/84/124 81/81/118 92/82/119
f 7/43/122 71/83/121 72/86/126
f 93/85/125 92/82/119 18/34/120
f 17/39/129 94/88/132 93/85/125
f 71/83/121 82/84/123 83/87/130
f 83/87/131 82/84/124 93/85/125
f 72/86/126 83/87/130 84/89/133
f 8/44/127 72/86/126 73/90/134
f 84/89/136 83/87/131 94/88/132
f 95/91/137 94/88/132 17/39/129
f 9/45/135 73/90/134 74/92/139
f 3/49/140 74/92/139 75/93/141
f 75/93/141 74/92/139 85/94/143
f 73/90/134 84/89/133 85/94/143
f 84/89/136 95/91/137 96/96/145
f 85/94/146 96/96/145 97/97/147
f 96/96/145 95/91/137 30/48/138
f 97/97/147 96/96/145 31/54/149
l 13 25
l 5 20
l 16 26
l 4 27
l 21 28
l 6 18
l 7 29
l 8 17
l 9 30
l 3 31
l 1 14
