# Blender v2.93.11 OBJ File: 'arm2left.blend'
# www.blender.org
mtllib arm2left.mtl
o Arm2_left_Cube.005
v 1.739089 -1.594217 -0.214480
v -1.810360 -0.432627 -0.256157
v -1.488993 -0.067500 -0.315996
v -1.760756 -0.261914 -0.289003
v -1.707497 -0.103981 -0.319390
v -1.293422 -0.155794 -0.309421
v -1.264724 -0.320064 -0.277815
v -1.857513 -0.831405 -0.179432
v -1.868034 -1.115348 -0.124800
v -1.872067 -1.383407 -0.073225
v -1.256974 -0.496403 -0.243887
v -1.279791 -0.698556 -0.204992
v -1.327317 -0.905934 -0.165092
v -1.387881 -1.153704 -0.117421
v -1.464835 -1.452443 -0.059943
v -1.541016 -1.614357 -0.028790
v -1.693116 -1.641565 -0.023555
v -1.820751 -1.574732 -0.036414
v -1.486227 -0.088646 -0.102121
v -1.502619 -0.237975 -0.009233
v -1.531807 -0.399656 0.039735
v -1.564476 -0.590144 0.083461
v -1.597001 -0.780772 0.114956
v -1.844267 -0.620508 -0.220009
v -1.626096 -1.076108 0.157830
v -1.658424 -1.343784 0.181433
v -1.684128 -1.544198 0.128443
v -1.657579 -0.082657 -0.171751
v -1.689907 -0.232062 -0.100423
v -1.727623 -0.401178 -0.044248
v -1.749714 -0.583890 -0.003775
v -1.773421 -0.795775 0.039080
v -1.786891 -1.078900 0.090609
v -1.800361 -1.351759 0.107662
v -1.792090 -1.544357 0.084799
v -1.355621 -0.108539 -0.147110
v -1.321949 -0.265331 -0.061857
v -1.337574 -0.440503 -0.007570
v -1.365053 -0.634968 0.033625
v -1.403955 -0.845893 0.059690
v -1.456649 -1.102830 0.085799
v -1.523999 -1.375093 0.115380
v -1.570248 -1.570554 0.088663
v -1.496034 -0.161652 -0.494568
v -1.506830 -0.325545 -0.509998
v -1.526731 -0.499621 -0.519517
v -1.557710 -0.723631 -0.498636
v -1.591130 -0.941611 -0.457144
v -1.632999 -1.205894 -0.405017
v -1.667108 -1.460352 -0.336846
v -1.683316 -1.616138 -0.215652
v -1.359264 -0.328882 -0.471992
v -1.355384 -0.504270 -0.460334
v -1.364959 -0.740304 -0.443982
v -1.405795 -0.966050 -0.409266
v -1.457333 -1.217476 -0.357985
v -1.520356 -1.477898 -0.293898
v -1.583315 -1.636428 -0.178569
v -1.381482 -0.172421 -0.457341
v -1.627460 -0.140694 -0.449661
v -1.669042 -0.295026 -0.456264
v -1.704345 -0.464047 -0.440572
v -1.742656 -0.666005 -0.417408
v -1.764886 -0.884208 -0.375114
v -1.783189 -1.158694 -0.305683
v -1.792436 -1.418228 -0.250174
v -1.787560 -1.599012 -0.175355
v -1.726865 -1.594217 -0.214480
vt 0.000000 0.000000
vt 0.000000 0.000000
vt 0.000000 0.000000
vt 0.000000 0.000000
vt 0.000000 0.000000
vt 0.000000 0.000000
vt 0.000000 0.000000
vt 0.000000 0.000000
vt 0.000000 0.000000
vt 0.000000 0.000000
vt 0.000000 0.000000
vt 0.000000 0.000000
vt 0.000000 0.000000
vt 0.000000 0.000000
vt 0.000000 0.000000
vt 0.000000 0.000000
vt 0.000000 0.000000
vt 0.000000 0.000000
vt 0.000000 0.000000
vt 0.000000 0.000000
vt 0.000000 0.000000
vt 0.000000 0.000000
vt 0.000000 0.000000
vt 0.000000 0.000000
vt 0.000000 0.000000
vt 0.000000 0.000000
vt 0.000000 0.000000
vt 0.000000 0.000000
vt 0.000000 0.000000
vt 0.000000 0.000000
vt 0.000000 0.000000
vt 0.000000 0.000000
vt 0.000000 0.000000
vt 0.000000 0.000000
vt 0.000000 0.000000
vt 0.000000 0.000000
vt 0.000000 0.000000
vt 0.000000 0.000000
vt 0.000000 0.000000
vt 0.000000 0.000000
vt 0.000000 0.000000
vt 0.000000 0.000000
vt 0.000000 0.000000
vt 0.000000 0.000000
vt 0.000000 0.000000
vt 0.000000 0.000000
vt 0.000000 0.000000
vt 0.000000 0.000000
vt 0.000000 0.000000
vt 0.000000 0.000000
vt 0.000000 0.000000
vt 0.000000 0.000000
vt 0.000000 0.000000
vt 0.000000 0.000000
vt 0.000000 0.000000
vt 0.000000 0.000000
vt 0.000000 0.000000
vt 0.000000 0.000000
vt 0.000000 0.000000
vt 0.000000 0.000000
vt 0.000000 0.000000
vt 0.000000 0.000000
vt 0.000000 0.000000
vt 0.000000 0.000000
vt 0.000000 0.000000
vt 0.000000 0.000000
vn 0.1224 0.9716 -0.2022
vn 0.5698 0.7341 0.3694
vn 0.8228 0.5365 -0.1875
vn -0.6984 0.6847 -0.2083
vn -0.4981 0.7778 0.3834
vn -0.9563 0.2670 -0.1187
vn 0.0469 0.8044 0.5922
vn -0.6786 0.4011 0.6153
vn -0.0308 0.4179 0.9080
vn 0.7164 0.2943 0.6326
vn 0.9901 0.0854 -0.1108
vn 0.9983 -0.0404 -0.0418
vn 0.6870 0.1050 0.7190
vn -0.0597 0.2702 0.9609
vn -0.7031 0.3010 0.6442
vn -0.9734 0.2087 -0.0947
vn 0.9863 -0.1623 0.0289
vn 0.6745 0.0209 0.7380
vn -0.0694 0.2015 0.9770
vn -0.7091 0.2279 0.6672
vn -0.9917 0.1146 -0.0576
vn 0.6890 -0.0409 0.7236
vn 0.9756 -0.2126 0.0534
vn -0.0671 0.1583 0.9851
vn -0.7208 0.1760 0.6704
vn -0.9978 0.0456 -0.0480
vn 0.7169 -0.0895 0.6914
vn 0.9709 -0.2268 0.0772
vn 0.0006 0.1003 0.9949
vn -0.7179 0.1280 0.6842
vn -0.9991 0.0198 -0.0374
vn 0.6781 -0.1733 0.7143
vn 0.9435 -0.3142 0.1046
vn -0.0148 -0.0769 0.9969
vn -0.7327 -0.0219 0.6801
vn -0.9962 -0.0863 0.0002
vn -0.6290 -0.4679 0.6207
vn -0.8006 -0.5868 0.1211
vn -0.0817 -0.5073 0.8579
vn 0.4772 -0.5794 0.6607
vn -0.1526 -0.9624 0.2246
vn 0.6403 -0.7484 0.1728
vn -0.4142 0.5712 -0.7086
vn 0.0516 0.5065 -0.8607
vn 0.5239 0.4971 -0.6916
vn -0.6173 0.1324 -0.7755
vn -0.6634 0.0571 -0.7461
vn -0.6901 -0.0195 -0.7234
vn -0.7188 -0.0883 -0.6895
vn -0.7624 -0.0950 -0.6401
vn -0.7647 -0.2065 -0.6103
vn -0.6299 -0.6524 -0.4213
vn -0.1863 -0.7897 -0.5845
vn 0.4020 -0.8513 -0.3371
vn -0.0034 0.0707 -0.9975
vn 0.6214 0.0454 -0.7821
vn 0.6671 -0.0508 -0.7432
vn -0.0354 -0.0212 -0.9991
vn -0.0923 -0.1272 -0.9875
vn 0.6822 -0.1836 -0.7077
vn 0.6747 -0.2636 -0.6894
vn -0.1385 -0.1856 -0.9728
vn 0.6834 -0.2997 -0.6657
vn -0.1883 -0.1995 -0.9616
vn -0.2181 -0.4022 -0.8892
vn 0.6250 -0.4691 -0.6239
usemtl red
s 1
f 3/1/1 36/2/2 6/3/3
f 5/4/4 28/5/5 3/1/1
f 4/6/6 28/5/5 5/4/4
f 19/7/7 29/8/8 20/9/9
f 20/9/9 36/2/2 19/7/7
f 6/3/3 37/10/10 7/11/11
f 11/12/12 37/10/10 38/13/13
f 38/13/13 20/9/9 21/14/14
f 21/14/14 29/8/8 30/15/15
f 30/15/15 4/6/6 2/16/16
f 12/17/17 38/13/13 39/18/18
f 39/18/18 21/14/14 22/19/19
f 22/19/19 30/15/15 31/20/20
f 31/20/20 2/16/16 24/21/21
f 12/17/17 40/22/22 13/23/23
f 23/24/24 39/18/18 22/19/19
f 23/24/24 31/20/20 32/25/25
f 32/25/25 24/21/21 8/26/26
f 13/23/23 41/27/27 14/28/28
f 25/29/29 40/22/22 23/24/24
f 25/29/29 32/25/25 33/30/30
f 9/31/31 32/25/25 8/26/26
f 14/28/28 42/32/32 15/33/33
f 42/32/32 25/29/29 26/34/34
f 26/34/34 33/30/30 34/35/35
f 34/35/35 9/31/31 10/36/36
f 35/37/37 10/36/36 18/38/38
f 27/39/39 34/35/35 35/37/37
f 43/40/40 15/33/33 42/32/32
f 42/32/32 27/39/39 43/40/40
f 17/41/41 16/42/42 43/40/40
f 17/41/41 43/40/40 27/39/39
f 17/41/41 27/39/39 35/37/37
f 17/41/41 35/37/37 18/38/38
f 36/2/2 3/1/1 19/7/7
f 28/5/5 19/7/7 3/1/1
f 60/43/43 5/4/4 3/1/1
f 3/1/1 44/44/44 60/43/43
f 59/45/45 44/44/44 3/1/1
f 3/1/1 6/3/3 59/45/45
f 5/4/4 61/46/46 4/6/6
f 4/6/6 62/47/47 2/16/16
f 2/16/16 63/48/48 24/21/21
f 8/26/26 63/48/48 64/49/49
f 9/31/31 64/49/49 65/50/50
f 9/31/31 66/51/51 10/36/36
f 10/36/36 67/52/52 18/38/38
f 17/41/41 18/38/38 67/52/52
f 17/41/41 67/52/52 51/53/53
f 17/41/41 51/53/53 58/54/54
f 17/41/41 58/54/54 16/42/42
f 45/55/55 60/43/43 44/44/44
f 45/55/55 59/45/45 52/56/56
f 52/56/56 6/3/3 7/11/11
f 53/57/57 7/11/11 11/12/12
f 45/55/55 53/57/57 46/58/58
f 46/58/58 61/46/46 45/55/55
f 63/48/48 46/58/58 47/59/59
f 46/58/58 54/60/60 47/59/59
f 54/60/60 11/12/12 12/17/17
f 13/23/23 54/60/60 12/17/17
f 47/59/59 55/61/61 48/62/62
f 64/49/49 47/59/59 48/62/62
f 48/62/62 56/63/63 49/64/64
f 65/50/50 48/62/62 49/64/64
f 14/28/28 55/61/61 13/23/23
f 66/51/51 49/64/64 50/65/65
f 49/64/64 57/66/66 50/65/65
f 15/33/33 56/63/63 14/28/28
f 51/53/53 66/51/51 50/65/65
f 51/53/53 57/66/66 58/54/54
f 58/54/54 15/33/33 16/42/42
f 4/6/6 29/8/8 28/5/5
f 19/7/7 28/5/5 29/8/8
f 20/9/9 37/10/10 36/2/2
f 6/3/3 36/2/2 37/10/10
f 11/12/12 7/11/11 37/10/10
f 38/13/13 37/10/10 20/9/9
f 21/14/14 20/9/9 29/8/8
f 30/15/15 29/8/8 4/6/6
f 12/17/17 11/12/12 38/13/13
f 39/18/18 38/13/13 21/14/14
f 22/19/19 21/14/14 30/15/15
f 31/20/20 30/15/15 2/16/16
f 12/17/17 39/18/18 40/22/22
f 23/24/24 40/22/22 39/18/18
f 23/24/24 22/19/19 31/20/20
f 32/25/25 31/20/20 24/21/21
f 13/23/23 40/22/22 41/27/27
f 25/29/29 41/27/27 40/22/22
f 25/29/29 23/24/24 32/25/25
f 9/31/31 33/30/30 32/25/25
f 14/28/28 41/27/27 42/32/32
f 42/32/32 41/27/27 25/29/29
f 26/34/34 25/29/29 33/30/30
f 34/35/35 33/30/30 9/31/31
f 35/37/37 34/35/35 10/36/36
f 27/39/39 26/34/34 34/35/35
f 43/40/40 16/42/42 15/33/33
f 42/32/32 26/34/34 27/39/39
f 5/4/4 60/43/43 61/46/46
f 4/6/6 61/46/46 62/47/47
f 2/16/16 62/47/47 63/48/48
f 8/26/26 24/21/21 63/48/48
f 9/31/31 8/26/26 64/49/49
f 9/31/31 65/50/50 66/51/51
f 10/36/36 66/51/51 67/52/52
f 45/55/55 61/46/46 60/43/43
f 45/55/55 44/44/44 59/45/45
f 52/56/56 59/45/45 6/3/3
f 53/57/57 52/56/56 7/11/11
f 45/55/55 52/56/56 53/57/57
f 46/58/58 62/47/47 61/46/46
f 63/48/48 62/47/47 46/58/58
f 46/58/58 53/57/57 54/60/60
f 54/60/60 53/57/57 11/12/12
f 13/23/23 55/61/61 54/60/60
f 47/59/59 54/60/60 55/61/61
f 64/49/49 63/48/48 47/59/59
f 48/62/62 55/61/61 56/63/63
f 65/50/50 64/49/49 48/62/62
f 14/28/28 56/63/63 55/61/61
f 66/51/51 65/50/50 49/64/64
f 49/64/64 56/63/63 57/66/66
f 15/33/33 57/66/66 56/63/63
f 51/53/53 67/52/52 66/51/51
f 51/53/53 50/65/65 57/66/66
f 58/54/54 57/66/66 15/33/33
