# Blender v2.93.11 OBJ File: 'arm2.blend'
# www.blender.org
mtllib arm2.mtl
o Arm2_Cube.005
v 1.822584 -0.432627 -0.268560
v 1.501218 -0.067500 -0.338177
v 1.772980 -0.261914 -0.306773
v 1.719721 -0.103981 -0.342126
v 1.305647 -0.155794 -0.330528
v 1.276948 -0.320064 -0.293757
v 1.869737 -0.831405 -0.179296
v 1.880258 -1.115348 -0.115737
v 1.884291 -1.383407 -0.055733
v 1.269199 -0.496403 -0.254284
v 1.292015 -0.698556 -0.209033
v 1.339542 -0.905934 -0.162613
v 1.400105 -1.153704 -0.107151
v 1.477059 -1.452443 -0.040279
v 1.553241 -1.614357 -0.004036
v 1.705340 -1.641565 0.002054
v 1.832975 -1.574732 -0.012906
v 1.498452 -0.088646 -0.089351
v 1.514843 -0.237975 0.018717
v 1.544032 -0.399656 0.075687
v 1.576700 -0.590144 0.126559
v 1.609226 -0.780772 0.163201
v 1.856492 -0.620508 -0.226504
v 1.638321 -1.076108 0.213082
v 1.670649 -1.343784 0.240541
v 1.696352 -1.544198 0.178892
v 1.669803 -0.082657 -0.170360
v 1.702131 -0.232061 -0.087376
v 1.739847 -0.401178 -0.022020
v 1.761938 -0.583890 0.025067
v 1.785645 -0.795775 0.074925
v 1.799115 -1.078900 0.134876
v 1.812585 -1.351759 0.154715
v 1.804314 -1.544357 0.128115
v 1.367846 -0.108539 -0.141692
v 1.334174 -0.265331 -0.042507
v 1.349799 -0.440503 0.020652
v 1.377277 -0.634968 0.068579
v 1.416179 -0.845893 0.098903
v 1.468874 -1.102830 0.129279
v 1.536223 -1.375093 0.163695
v 1.582473 -1.570554 0.132612
v 1.508258 -0.161652 -0.545932
v 1.519054 -0.325545 -0.563883
v 1.538956 -0.499621 -0.574957
v 1.569935 -0.723631 -0.550665
v 1.603355 -0.941611 -0.502392
v 1.645223 -1.205893 -0.441746
v 1.679332 -1.460352 -0.362435
v 1.695541 -1.616138 -0.221435
v 1.371489 -0.328882 -0.519667
v 1.367609 -0.504270 -0.506103
v 1.377184 -0.740304 -0.487079
v 1.418020 -0.966050 -0.446690
v 1.469558 -1.217476 -0.387028
v 1.532581 -1.477898 -0.312468
v 1.595539 -1.636428 -0.178292
v 1.393706 -0.172421 -0.502621
v 1.639685 -0.140694 -0.493686
v 1.681267 -0.295026 -0.501368
v 1.716569 -0.464047 -0.483111
v 1.754880 -0.666005 -0.456162
v 1.777110 -0.884208 -0.406957
v 1.795413 -1.158694 -0.326179
v 1.804661 -1.418228 -0.261598
v 1.799784 -1.599012 -0.174552
v 1.739089 -1.594217 -0.220072
v -1.810360 -0.432627 -0.268560
v -1.488993 -0.067500 -0.338177
v -1.760756 -0.261914 -0.306773
v -1.707497 -0.103981 -0.342126
v -1.293422 -0.155794 -0.330528
v -1.264724 -0.320064 -0.293757
v -1.857513 -0.831405 -0.179296
v -1.868034 -1.115348 -0.115737
v -1.872067 -1.383407 -0.055733
v -1.256974 -0.496403 -0.254284
v -1.279791 -0.698556 -0.209033
v -1.327317 -0.905934 -0.162613
v -1.387881 -1.153704 -0.107151
v -1.464835 -1.452443 -0.040279
v -1.541016 -1.614357 -0.004036
v -1.693116 -1.641565 0.002054
v -1.820751 -1.574732 -0.012906
v -1.486227 -0.088646 -0.089351
v -1.502619 -0.237975 0.018717
v -1.531807 -0.399656 0.075687
v -1.564476 -0.590144 0.126559
v -1.597001 -0.780772 0.163201
v -1.844267 -0.620508 -0.226504
v -1.626096 -1.076108 0.213082
v -1.658424 -1.343784 0.240541
v -1.684128 -1.544198 0.178892
v -1.657579 -0.082657 -0.170360
v -1.689907 -0.232061 -0.087376
v -1.727623 -0.401178 -0.022020
v -1.749714 -0.583890 0.025067
v -1.773421 -0.795775 0.074925
v -1.786891 -1.078900 0.134876
v -1.800361 -1.351759 0.154715
v -1.792090 -1.544357 0.128115
v -1.355621 -0.108539 -0.141692
v -1.321949 -0.265331 -0.042507
v -1.337574 -0.440503 0.020652
v -1.365053 -0.634968 0.068579
v -1.403955 -0.845893 0.098903
v -1.456649 -1.102830 0.129279
v -1.523999 -1.375093 0.163695
v -1.570248 -1.570554 0.132612
v -1.496034 -0.161652 -0.545932
v -1.506830 -0.325545 -0.563883
v -1.526731 -0.499621 -0.574957
v -1.557710 -0.723631 -0.550665
v -1.591130 -0.941611 -0.502392
v -1.632999 -1.205893 -0.441746
v -1.667108 -1.460352 -0.362435
v -1.683316 -1.616138 -0.221435
v -1.359264 -0.328882 -0.519667
v -1.355384 -0.504270 -0.506103
v -1.364959 -0.740304 -0.487079
v -1.405795 -0.966050 -0.446690
v -1.457333 -1.217476 -0.387028
v -1.520356 -1.477898 -0.312468
v -1.583315 -1.636428 -0.178292
v -1.381482 -0.172421 -0.502621
v -1.627460 -0.140694 -0.493686
v -1.669042 -0.295026 -0.501368
v -1.704345 -0.464047 -0.483111
v -1.742656 -0.666005 -0.456162
v -1.764886 -0.884208 -0.406957
v -1.783189 -1.158694 -0.326179
v -1.792436 -1.418228 -0.261598
v -1.787560 -1.599012 -0.174552
v -1.726865 -1.594217 -0.220072
vt 0.000000 0.000000
vt 0.000000 0.000000
vt 0.000000 0.000000
vt 0.000000 0.000000
vt 0.000000 0.000000
vt 0.000000 0.000000
vt 0.000000 0.000000
vt 0.000000 0.000000
vt 0.000000 0.000000
vt 0.000000 0.000000
vt 0.000000 0.000000
vt 0.000000 0.000000
vt 0.000000 0.000000
vt 0.000000 0.000000
vt 0.000000 0.000000
vt 0.000000 0.000000
vt 0.000000 0.000000
vt 0.000000 0.000000
vt 0.000000 0.000000
vt 0.000000 0.000000
vt 0.000000 0.000000
vt 0.000000 0.000000
vt 0.000000 0.000000
vt 0.000000 0.000000
vt 0.000000 0.000000
vt 0.000000 0.000000
vt 0.000000 0.000000
vt 0.000000 0.000000
vt 0.000000 0.000000
vt 0.000000 0.000000
vt 0.000000 0.000000
vt 0.000000 0.000000
vt 0.000000 0.000000
vt 0.000000 0.000000
vt 0.000000 0.000000
vt 0.000000 0.000000
vt 0.000000 0.000000
vt 0.000000 0.000000
vt 0.000000 0.000000
vt 0.000000 0.000000
vt 0.000000 0.000000
vt 0.000000 0.000000
vt 0.000000 0.000000
vt 0.000000 0.000000
vt 0.000000 0.000000
vt 0.000000 0.000000
vt 0.000000 0.000000
vt 0.000000 0.000000
vt 0.000000 0.000000
vt 0.000000 0.000000
vt 0.000000 0.000000
vt 0.000000 0.000000
vt 0.000000 0.000000
vt 0.000000 0.000000
vt 0.000000 0.000000
vt 0.000000 0.000000
vt 0.000000 0.000000
vt 0.000000 0.000000
vt 0.000000 0.000000
vt 0.000000 0.000000
vt 0.000000 0.000000
vt 0.000000 0.000000
vt 0.000000 0.000000
vt 0.000000 0.000000
vt 0.000000 0.000000
vt 0.000000 0.000000
vt 0.000000 0.000000
vt 0.000000 0.000000
vt 0.000000 0.000000
vt 0.000000 0.000000
vt 0.000000 0.000000
vt 0.000000 0.000000
vt 0.000000 0.000000
vt 0.000000 0.000000
vt 0.000000 0.000000
vt 0.000000 0.000000
vt 0.000000 0.000000
vt 0.000000 0.000000
vt 0.000000 0.000000
vt 0.000000 0.000000
vt 0.000000 0.000000
vt 0.000000 0.000000
vt 0.000000 0.000000
vt 0.000000 0.000000
vt 0.000000 0.000000
vt 0.000000 0.000000
vt 0.000000 0.000000
vt 0.000000 0.000000
vt 0.000000 0.000000
vt 0.000000 0.000000
vt 0.000000 0.000000
vt 0.000000 0.000000
vt 0.000000 0.000000
vt 0.000000 0.000000
vt 0.000000 0.000000
vt 0.000000 0.000000
vt 0.000000 0.000000
vt 0.000000 0.000000
vt 0.000000 0.000000
vt 0.000000 0.000000
vt 0.000000 0.000000
vt 0.000000 0.000000
vt 0.000000 0.000000
vt 0.000000 0.000000
vt 0.000000 0.000000
vt 0.000000 0.000000
vt 0.000000 0.000000
vt 0.000000 0.000000
vt 0.000000 0.000000
vt 0.000000 0.000000
vt 0.000000 0.000000
vt 0.000000 0.000000
vt 0.000000 0.000000
vt 0.000000 0.000000
vt 0.000000 0.000000
vt 0.000000 0.000000
vt 0.000000 0.000000
vt 0.000000 0.000000
vt 0.000000 0.000000
vt 0.000000 0.000000
vt 0.000000 0.000000
vt 0.000000 0.000000
vt 0.000000 0.000000
vt 0.000000 0.000000
vt 0.000000 0.000000
vt 0.000000 0.000000
vt 0.000000 0.000000
vt 0.000000 0.000000
vt 0.000000 0.000000
vt 0.000000 0.000000
vt 0.000000 0.000000
vt 0.000000 0.000000
vn -0.1245 0.9758 -0.1797
vn -0.8289 0.5382 -0.1526
vn -0.6018 0.7273 0.3298
vn 0.6953 0.6927 -0.1916
vn 0.5126 0.7844 0.3491
vn 0.9570 0.2685 -0.1098
vn 0.6990 0.4294 0.5718
vn -0.0452 0.8230 0.5662
vn 0.0323 0.4663 0.8840
vn -0.7414 0.3233 0.5881
vn -0.9910 0.0987 -0.0902
vn -0.9985 -0.0405 -0.0370
vn -0.7165 0.1209 0.6870
vn 0.0639 0.3085 0.9491
vn 0.9734 0.2098 -0.0920
vn 0.7253 0.3244 0.6071
vn -0.9861 -0.1636 0.0274
vn -0.7071 0.0284 0.7066
vn 0.0757 0.2316 0.9698
vn 0.9930 0.1091 -0.0461
vn 0.7442 0.2337 0.6257
vn -0.9761 -0.2116 0.0492
vn 0.0735 0.1825 0.9804
vn -0.7247 -0.0360 0.6881
vn 0.9982 0.0487 -0.0333
vn 0.7563 0.1952 0.6244
vn -0.9717 -0.2257 0.0688
vn -0.0017 0.1162 0.9932
vn -0.7526 -0.0900 0.6523
vn 0.9992 0.0208 -0.0346
vn 0.7495 0.1406 0.6469
vn -0.7117 -0.1844 0.6778
vn -0.9445 -0.3153 0.0921
vn 0.0162 -0.0877 0.9960
vn 0.9959 -0.0905 0.0003
vn 0.7657 -0.0278 0.6425
vn 0.6506 -0.4886 0.5813
vn 0.7997 -0.5905 0.1084
vn 0.0878 -0.5400 0.8370
vn -0.4963 -0.6075 0.6202
vn -0.6382 -0.7539 0.1559
vn 0.1530 -0.9677 0.2004
vn 0.4438 0.5958 -0.6694
vn -0.0523 0.5289 -0.8470
vn -0.5544 0.5165 -0.6525
vn 0.6574 0.1422 -0.7400
vn 0.7077 0.0580 -0.7041
vn 0.7278 -0.0200 -0.6854
vn 0.7552 -0.1027 -0.6474
vn 0.8007 -0.1032 -0.5900
vn 0.7980 -0.2222 -0.5602
vn 0.6442 -0.6600 -0.3866
vn 0.1951 -0.8099 -0.5531
vn -0.4104 -0.8603 -0.3022
vn 0.0034 0.0820 -0.9966
vn -0.6558 0.0497 -0.7533
vn -0.6975 -0.0641 -0.7137
vn 0.0316 -0.0353 -0.9989
vn 0.0948 -0.1396 -0.9857
vn -0.7048 -0.1860 -0.6845
vn -0.6954 -0.2816 -0.6612
vn 0.1542 -0.2140 -0.9646
vn -0.7014 -0.3191 -0.6373
vn 0.2064 -0.2299 -0.9510
vn 0.2340 -0.4435 -0.8652
vn -0.6344 -0.4982 -0.5910
vn 0.1245 0.9758 -0.1797
vn 0.6018 0.7273 0.3298
vn 0.8289 0.5382 -0.1526
vn -0.6953 0.6927 -0.1916
vn -0.5126 0.7844 0.3491
vn -0.9570 0.2685 -0.1098
vn -0.6990 0.4294 0.5718
vn -0.0323 0.4663 0.8840
vn 0.0452 0.8230 0.5662
vn 0.7414 0.3233 0.5881
vn 0.9910 0.0987 -0.0902
vn 0.9985 -0.0405 -0.0370
vn -0.0639 0.3085 0.9491
vn 0.7165 0.1209 0.6870
vn -0.9734 0.2098 -0.0920
vn -0.7253 0.3244 0.6071
vn 0.9861 -0.1636 0.0274
vn -0.0757 0.2316 0.9698
vn 0.7071 0.0284 0.7066
vn -0.9930 0.1091 -0.0461
vn -0.7442 0.2337 0.6257
vn 0.9761 -0.2116 0.0492
vn -0.0735 0.1825 0.9804
vn 0.7247 -0.0360 0.6881
vn -0.9982 0.0487 -0.0333
vn -0.7563 0.1952 0.6244
vn 0.9717 -0.2257 0.0688
vn 0.0017 0.1162 0.9932
vn 0.7526 -0.0900 0.6523
vn -0.9992 0.0208 -0.0346
vn -0.7495 0.1406 0.6469
vn 0.7117 -0.1844 0.6778
vn 0.9445 -0.3153 0.0921
vn -0.0162 -0.0877 0.9960
vn -0.9959 -0.0905 0.0003
vn -0.7657 -0.0278 0.6425
vn -0.7997 -0.5905 0.1084
vn -0.6506 -0.4886 0.5813
vn -0.0878 -0.5400 0.8370
vn 0.4963 -0.6075 0.6202
vn 0.6382 -0.7539 0.1559
vn -0.1530 -0.9677 0.2004
vn -0.4438 0.5958 -0.6694
vn 0.0523 0.5289 -0.8470
vn 0.5544 0.5165 -0.6525
vn -0.6574 0.1422 -0.7400
vn -0.7077 0.0580 -0.7041
vn -0.7278 -0.0200 -0.6854
vn -0.7552 -0.1027 -0.6474
vn -0.8007 -0.1032 -0.5900
vn -0.7980 -0.2222 -0.5602
vn -0.6442 -0.6600 -0.3866
vn -0.1951 -0.8099 -0.5531
vn 0.4104 -0.8603 -0.3022
vn -0.0034 0.0820 -0.9966
vn 0.6558 0.0497 -0.7533
vn 0.6975 -0.0641 -0.7137
vn -0.0316 -0.0353 -0.9989
vn -0.0948 -0.1396 -0.9857
vn 0.7048 -0.1860 -0.6845
vn 0.6954 -0.2816 -0.6612
vn -0.1542 -0.2140 -0.9646
vn 0.7014 -0.3191 -0.6373
vn -0.2064 -0.2299 -0.9510
vn -0.2340 -0.4435 -0.8652
vn 0.6344 -0.4982 -0.5910
usemtl red
s 1
f 2/1/1 5/2/2 35/3/3
f 4/4/4 2/1/1 27/5/5
f 3/6/6 27/5/5 28/7/7
f 28/7/7 18/8/8 19/9/9
f 19/9/9 35/3/3 36/10/10
f 6/11/11 35/3/3 5/2/2
f 10/12/12 36/10/10 6/11/11
f 19/9/9 37/13/13 20/14/14
f 20/14/14 28/7/7 19/9/9
f 1/15/15 28/7/7 29/16/16
f 11/17/17 37/13/13 10/12/12
f 20/14/14 38/18/18 21/19/19
f 21/19/19 29/16/16 20/14/14
f 23/20/20 29/16/16 30/21/21
f 12/22/22 38/18/18 11/17/17
f 22/23/23 38/18/18 39/24/24
f 22/23/23 30/21/21 21/19/19
f 7/25/25 30/21/21 31/26/26
f 13/27/27 39/24/24 12/22/22
f 24/28/28 39/24/24 40/29/29
f 24/28/28 31/26/26 22/23/23
f 8/30/30 31/26/26 32/31/31
f 41/32/32 13/27/27 14/33/33
f 24/28/28 41/32/32 25/34/34
f 25/34/34 32/31/31 24/28/28
f 9/35/35 32/31/31 33/36/36
f 9/35/35 34/37/37 17/38/38
f 26/39/39 33/36/36 25/34/34
f 42/40/40 14/33/33 15/41/41
f 41/32/32 26/39/39 25/34/34
f 16/42/42 42/40/40 15/41/41
f 16/42/42 26/39/39 42/40/40
f 16/42/42 34/37/37 26/39/39
f 16/42/42 17/38/38 34/37/37
f 35/3/3 18/8/8 2/1/1
f 27/5/5 2/1/1 18/8/8
f 59/43/43 2/1/1 4/4/4
f 2/1/1 59/43/43 43/44/44
f 58/45/45 2/1/1 43/44/44
f 2/1/1 58/45/45 5/2/2
f 60/46/46 4/4/4 3/6/6
f 61/47/47 3/6/6 1/15/15
f 62/48/48 1/15/15 23/20/20
f 63/49/49 23/20/20 7/25/25
f 64/50/50 7/25/25 8/30/30
f 65/51/51 8/30/30 9/35/35
f 66/52/52 9/35/35 17/38/38
f 16/42/42 66/52/52 17/38/38
f 16/42/42 50/53/53 66/52/52
f 16/42/42 57/54/54 50/53/53
f 16/42/42 15/41/41 57/54/54
f 44/55/55 59/43/43 60/46/46
f 44/55/55 58/45/45 43/44/44
f 5/2/2 51/56/56 6/11/11
f 6/11/11 52/57/57 10/12/12
f 52/57/57 44/55/55 45/58/58
f 45/58/58 60/46/46 61/47/47
f 46/59/59 61/47/47 62/48/48
f 46/59/59 52/57/57 45/58/58
f 10/12/12 53/60/60 11/17/17
f 12/22/22 53/60/60 54/61/61
f 54/61/61 46/59/59 47/62/62
f 46/59/59 63/49/49 47/62/62
f 55/63/63 47/62/62 48/64/64
f 47/62/62 64/50/50 48/64/64
f 13/27/27 54/61/61 55/63/63
f 48/64/64 65/51/51 49/65/65
f 56/66/66 48/64/64 49/65/65
f 13/27/27 56/66/66 14/33/33
f 50/53/53 65/51/51 66/52/52
f 50/53/53 56/66/66 49/65/65
f 14/33/33 57/54/54 15/41/41
f 3/6/6 4/4/4 27/5/5
f 28/7/7 27/5/5 18/8/8
f 19/9/9 18/8/8 35/3/3
f 6/11/11 36/10/10 35/3/3
f 10/12/12 37/13/13 36/10/10
f 19/9/9 36/10/10 37/13/13
f 20/14/14 29/16/16 28/7/7
f 1/15/15 3/6/6 28/7/7
f 11/17/17 38/18/18 37/13/13
f 20/14/14 37/13/13 38/18/18
f 21/19/19 30/21/21 29/16/16
f 23/20/20 1/15/15 29/16/16
f 12/22/22 39/24/24 38/18/18
f 22/23/23 21/19/19 38/18/18
f 22/23/23 31/26/26 30/21/21
f 7/25/25 23/20/20 30/21/21
f 13/27/27 40/29/29 39/24/24
f 24/28/28 22/23/23 39/24/24
f 24/28/28 32/31/31 31/26/26
f 8/30/30 7/25/25 31/26/26
f 41/32/32 40/29/29 13/27/27
f 24/28/28 40/29/29 41/32/32
f 25/34/34 33/36/36 32/31/31
f 9/35/35 8/30/30 32/31/31
f 9/35/35 33/36/36 34/37/37
f 26/39/39 34/37/37 33/36/36
f 42/40/40 41/32/32 14/33/33
f 41/32/32 42/40/40 26/39/39
f 60/46/46 59/43/43 4/4/4
f 61/47/47 60/46/46 3/6/6
f 62/48/48 61/47/47 1/15/15
f 63/49/49 62/48/48 23/20/20
f 64/50/50 63/49/49 7/25/25
f 65/51/51 64/50/50 8/30/30
f 66/52/52 65/51/51 9/35/35
f 44/55/55 43/44/44 59/43/43
f 44/55/55 51/56/56 58/45/45
f 5/2/2 58/45/45 51/56/56
f 6/11/11 51/56/56 52/57/57
f 52/57/57 51/56/56 44/55/55
f 45/58/58 44/55/55 60/46/46
f 46/59/59 45/58/58 61/47/47
f 46/59/59 53/60/60 52/57/57
f 10/12/12 52/57/57 53/60/60
f 12/22/22 11/17/17 53/60/60
f 54/61/61 53/60/60 46/59/59
f 46/59/59 62/48/48 63/49/49
f 55/63/63 54/61/61 47/62/62
f 47/62/62 63/49/49 64/50/50
f 13/27/27 12/22/22 54/61/61
f 48/64/64 64/50/50 65/51/51
f 56/66/66 55/63/63 48/64/64
f 13/27/27 55/63/63 56/66/66
f 50/53/53 49/65/65 65/51/51
f 50/53/53 57/54/54 56/66/66
f 14/33/33 56/66/66 57/54/54
f 69/67/67 102/68/68 72/69/69
f 71/70/70 94/71/71 69/67/67
f 70/72/72 95/73/73 94/71/71
f 95/73/73 86/74/74 85/75/75
f 86/74/74 103/76/76 102/68/68
f 73/77/77 72/69/69 102/68/68
f 77/78/78 73/77/77 103/76/76
f 86/74/74 87/79/79 104/80/80
f 87/79/79 86/74/74 95/73/73
f 68/81/81 96/82/82 95/73/73
f 78/83/83 77/78/78 104/80/80
f 87/79/79 88/84/84 105/85/85
f 88/84/84 87/79/79 96/82/82
f 90/86/86 97/87/87 96/82/82
f 79/88/88 78/83/83 105/85/85
f 89/89/89 106/90/90 105/85/85
f 89/89/89 88/84/84 97/87/87
f 74/91/91 98/92/92 97/87/87
f 80/93/93 79/88/88 106/90/90
f 91/94/94 107/95/95 106/90/90
f 91/94/94 89/89/89 98/92/92
f 75/96/96 99/97/97 98/92/92
f 108/98/98 81/99/99 80/93/93
f 91/94/94 92/100/100 108/98/98
f 92/100/100 91/94/94 99/97/97
f 76/101/101 100/102/102 99/97/97
f 76/101/101 84/103/103 101/104/104
f 93/105/105 92/100/100 100/102/102
f 109/106/106 82/107/107 81/99/99
f 108/98/98 92/100/100 93/105/105
f 83/108/108 82/107/107 109/106/106
f 83/108/108 109/106/106 93/105/105
f 83/108/108 93/105/105 101/104/104
f 83/108/108 101/104/104 84/103/103
f 102/68/68 69/67/67 85/75/75
f 94/71/71 85/75/75 69/67/67
f 126/109/109 71/70/70 69/67/67
f 69/67/67 110/110/110 126/109/109
f 125/111/111 110/110/110 69/67/67
f 69/67/67 72/69/69 125/111/111
f 127/112/112 70/72/72 71/70/70
f 128/113/113 68/81/81 70/72/72
f 129/114/114 90/86/86 68/81/81
f 130/115/115 74/91/91 90/86/86
f 131/116/116 75/96/96 74/91/91
f 132/117/117 76/101/101 75/96/96
f 133/118/118 84/103/103 76/101/101
f 83/108/108 84/103/103 133/118/118
f 83/108/108 133/118/118 117/119/119
f 83/108/108 117/119/119 124/120/120
f 83/108/108 124/120/120 82/107/107
f 111/121/121 127/112/112 126/109/109
f 111/121/121 110/110/110 125/111/111
f 72/69/69 73/77/77 118/122/122
f 73/77/77 77/78/78 119/123/123
f 119/123/123 112/124/124 111/121/121
f 112/124/124 128/113/113 127/112/112
f 113/125/125 129/114/114 128/113/113
f 113/125/125 112/124/124 119/123/123
f 77/78/78 78/83/83 120/126/126
f 79/88/88 121/127/127 120/126/126
f 121/127/127 114/128/128 113/125/125
f 113/125/125 114/128/128 130/115/115
f 122/129/129 115/130/130 114/128/128
f 114/128/128 115/130/130 131/116/116
f 80/93/93 122/129/129 121/127/127
f 115/130/130 116/131/131 132/117/117
f 123/132/132 116/131/131 115/130/130
f 80/93/93 81/99/99 123/132/132
f 117/119/119 133/118/118 132/117/117
f 117/119/119 116/131/131 123/132/132
f 81/99/99 82/107/107 124/120/120
f 70/72/72 94/71/71 71/70/70
f 95/73/73 85/75/75 94/71/71
f 86/74/74 102/68/68 85/75/75
f 73/77/77 102/68/68 103/76/76
f 77/78/78 103/76/76 104/80/80
f 86/74/74 104/80/80 103/76/76
f 87/79/79 95/73/73 96/82/82
f 68/81/81 95/73/73 70/72/72
f 78/83/83 104/80/80 105/85/85
f 87/79/79 105/85/85 104/80/80
f 88/84/84 96/82/82 97/87/87
f 90/86/86 96/82/82 68/81/81
f 79/88/88 105/85/85 106/90/90
f 89/89/89 105/85/85 88/84/84
f 89/89/89 97/87/87 98/92/92
f 74/91/91 97/87/87 90/86/86
f 80/93/93 106/90/90 107/95/95
f 91/94/94 106/90/90 89/89/89
f 91/94/94 98/92/92 99/97/97
f 75/96/96 98/92/92 74/91/91
f 108/98/98 80/93/93 107/95/95
f 91/94/94 108/98/98 107/95/95
f 92/100/100 99/97/97 100/102/102
f 76/101/101 99/97/97 75/96/96
f 76/101/101 101/104/104 100/102/102
f 93/105/105 100/102/102 101/104/104
f 109/106/106 81/99/99 108/98/98
f 108/98/98 93/105/105 109/106/106
f 127/112/112 71/70/70 126/109/109
f 128/113/113 70/72/72 127/112/112
f 129/114/114 68/81/81 128/113/113
f 130/115/115 90/86/86 129/114/114
f 131/116/116 74/91/91 130/115/115
f 132/117/117 75/96/96 131/116/116
f 133/118/118 76/101/101 132/117/117
f 111/121/121 126/109/109 110/110/110
f 111/121/121 125/111/111 118/122/122
f 72/69/69 118/122/122 125/111/111
f 73/77/77 119/123/123 118/122/122
f 119/123/123 111/121/121 118/122/122
f 112/124/124 127/112/112 111/121/121
f 113/125/125 128/113/113 112/124/124
f 113/125/125 119/123/123 120/126/126
f 77/78/78 120/126/126 119/123/123
f 79/88/88 120/126/126 78/83/83
f 121/127/127 113/125/125 120/126/126
f 113/125/125 130/115/115 129/114/114
f 122/129/129 114/128/128 121/127/127
f 114/128/128 131/116/116 130/115/115
f 80/93/93 121/127/127 79/88/88
f 115/130/130 132/117/117 131/116/116
f 123/132/132 115/130/130 122/129/129
f 80/93/93 123/132/132 122/129/129
f 117/119/119 132/117/117 116/131/131
f 117/119/119 123/132/132 124/120/120
f 81/99/99 124/120/120 123/132/132
