# Blender v2.93.11 OBJ File: 'gun.blend'
# www.blender.org
mtllib gun.mtl
o Gun_Cube.013
v -0.542646 1.831636 -0.554416
v -0.542646 1.679016 -0.554416
v -0.542646 1.831636 -0.267330
v -0.542646 1.679016 -0.267330
v -0.855518 1.831636 -0.554416
v -0.855518 1.679016 -0.554416
v -0.855518 1.831636 -0.267330
v -0.855518 1.679016 -0.267330
v 0.547263 1.831636 -0.554416
v 0.547263 1.679016 -0.554416
v 0.547263 1.831636 -0.267330
v 0.547263 1.679016 -0.267330
v 0.860135 1.831636 -0.554416
v 0.860135 1.679016 -0.554416
v 0.860135 1.831636 -0.267330
v 0.860135 1.679016 -0.267330
vt 0.625000 0.000000
vt 0.375000 0.250000
vt 0.375000 0.000000
vt 0.625000 0.250000
vt 0.375000 0.500000
vt 0.375000 0.250000
vt 0.625000 0.500000
vt 0.375000 0.750000
vt 0.375000 0.500000
vt 0.625000 0.750000
vt 0.375000 1.000000
vt 0.375000 0.750000
vt 0.375000 0.500000
vt 0.125000 0.750000
vt 0.125000 0.500000
vt 0.875000 0.500000
vt 0.625000 0.750000
vt 0.625000 0.500000
vt 0.625000 0.250000
vt 0.625000 0.500000
vt 0.625000 0.750000
vt 0.625000 1.000000
vt 0.375000 0.750000
vt 0.875000 0.750000
vt 0.625000 0.000000
vt 0.375000 0.000000
vt 0.375000 0.250000
vt 0.625000 0.250000
vt 0.375000 0.250000
vt 0.375000 0.500000
vt 0.625000 0.500000
vt 0.375000 0.500000
vt 0.375000 0.750000
vt 0.625000 0.750000
vt 0.375000 0.750000
vt 0.375000 1.000000
vt 0.375000 0.500000
vt 0.125000 0.500000
vt 0.125000 0.750000
vt 0.875000 0.500000
vt 0.625000 0.500000
vt 0.625000 0.750000
vt 0.625000 0.250000
vt 0.625000 0.500000
vt 0.625000 0.750000
vt 0.625000 1.000000
vt 0.375000 0.750000
vt 0.875000 0.750000
vn 0.0000 -1.0000 0.0000
vn 0.0000 0.0000 -1.0000
vn -1.0000 0.0000 0.0000
vn 0.0000 0.0000 1.0000
vn 0.0000 1.0000 0.0000
vn 1.0000 0.0000 0.0000
usemtl Material.001
s off
f 2/1/1 8/2/1 6/3/1
f 5/4/2 2/5/2 6/6/2
f 7/7/3 6/8/3 8/9/3
f 3/10/4 8/11/4 4/12/4
f 5/13/5 3/14/5 1/15/5
f 1/16/6 4/17/6 2/18/6
f 2/1/1 4/19/1 8/2/1
f 5/4/2 1/20/2 2/5/2
f 7/7/3 5/21/3 6/8/3
f 3/10/4 7/22/4 8/11/4
f 5/13/5 7/23/5 3/14/5
f 1/16/6 3/24/6 4/17/6
f 10/25/1 14/26/1 16/27/1
f 13/28/2 14/29/2 10/30/2
f 15/31/6 16/32/6 14/33/6
f 11/34/4 12/35/4 16/36/4
f 13/37/5 9/38/5 11/39/5
f 9/40/3 10/41/3 12/42/3
f 10/25/1 16/27/1 12/43/1
f 13/28/2 10/30/2 9/44/2
f 15/31/6 14/33/6 13/45/6
f 11/34/4 16/36/4 15/46/4
f 13/37/5 11/39/5 15/47/5
f 9/40/3 12/42/3 11/48/3
